<svg width="140" height="61" viewBox="0 0 140 61" fill="none" xmlns="http://www.w3.org/2000/svg">
<g clip-path="url(#clip0_1_2)">
<path d="M71.3516 17.6084C71.548 17.4138 71.5497 17.0972 71.3555 16.9013L68.1906 13.708C67.9964 13.512 67.6798 13.5109 67.4835 13.7054C67.2872 13.9 67.2855 14.2166 67.4797 14.4125L70.2929 17.251L67.4493 20.0693C67.2529 20.2639 67.2512 20.5805 67.4454 20.7764C67.6397 20.9724 67.9562 20.9735 68.1525 20.7789L71.3516 17.6084ZM0 17L-0.0026931 17.5L70.9973 17.7535L71 17.2536L71.0027 16.7536L0.0026931 16.5L0 17Z" fill="black"/>
<path d="M71.3517 27.7998C71.548 27.6052 71.5496 27.2886 71.3554 27.0927L68.1901 23.8991C67.9959 23.7031 67.6793 23.702 67.483 23.8965C67.2868 24.091 67.2851 24.4076 67.4793 24.6036L70.2929 27.4423L67.4496 30.2604C67.2533 30.4549 67.2517 30.7715 67.4459 30.9675C67.6401 31.1634 67.9567 31.1646 68.153 30.9701L71.3517 27.7998ZM0 27.185L-0.00262742 27.685L70.9973 27.9449L71 27.4449L71.0026 26.9449L0.00262742 26.685L0 27.185Z" fill="black"/>
<path d="M0 27.185L71 17.2599" stroke="black"/>
<path d="M71.3517 37.9848C71.548 37.7902 71.5496 37.4737 71.3554 37.2777L68.1901 34.0841C67.9959 33.8881 67.6793 33.887 67.483 34.0815C67.2868 34.2761 67.2851 34.5926 67.4793 34.7886L70.2929 37.6274L67.4496 40.4454C67.2533 40.6399 67.2517 40.9565 67.4459 41.1525C67.6401 41.3485 67.9567 41.3496 68.153 41.1551L71.3517 37.9848ZM0 37.3701L-0.00262742 37.87L70.9973 38.1299L71 37.63L71.0026 37.13L0.00262742 36.8701L0 37.3701Z" fill="black"/>
<path d="M0 37.3701L71 27.4449" stroke="black"/>
<path d="M71.3516 17.6084C71.548 17.4138 71.5497 17.0972 71.3555 16.9013L68.1906 13.708C67.9964 13.512 67.6798 13.5109 67.4835 13.7054C67.2872 13.9 67.2855 14.2166 67.4797 14.4125L70.2929 17.251L67.4493 20.0693C67.2529 20.2639 67.2512 20.5805 67.4454 20.7764C67.6397 20.9724 67.9562 20.9735 68.1525 20.7789L71.3516 17.6084ZM0 17L-0.0026931 17.5L70.9973 17.7535L71 17.2536L71.0027 16.7536L0.0026931 16.5L0 17Z" fill="black"/>
<path d="M71.3517 27.7998C71.548 27.6052 71.5496 27.2886 71.3554 27.0927L68.1901 23.8991C67.9959 23.7031 67.6793 23.702 67.483 23.8965C67.2868 24.091 67.2851 24.4076 67.4793 24.6036L70.2929 27.4423L67.4496 30.2604C67.2533 30.4549 67.2517 30.7715 67.4459 30.9675C67.6401 31.1634 67.9567 31.1646 68.153 30.9701L71.3517 27.7998ZM0 27.185L-0.00262742 27.685L70.9973 27.9449L71 27.4449L71.0026 26.9449L0.00262742 26.685L0 27.185Z" fill="black"/>
<path d="M0 27.185L71 17.2599" stroke="black"/>
<path d="M71.3517 37.9848C71.548 37.7902 71.5496 37.4737 71.3554 37.2777L68.1901 34.0841C67.9959 33.8881 67.6793 33.887 67.483 34.0815C67.2868 34.2761 67.2851 34.5926 67.4793 34.7886L70.2929 37.6274L67.4496 40.4454C67.2533 40.6399 67.2517 40.9565 67.4459 41.1525C67.6401 41.3485 67.9567 41.3496 68.153 41.1551L71.3517 37.9848ZM0 37.3701L-0.00262742 37.87L70.9973 38.1299L71 37.63L71.0026 37.13L0.00262742 36.8701L0 37.3701Z" fill="black"/>
<path d="M0 37.3701L71 27.4449" stroke="black"/>
<path d="M71.3517 48.1698C71.548 47.9753 71.5496 47.6587 71.3554 47.4627L68.1901 44.2691C67.9959 44.0732 67.6793 44.072 67.483 44.2666C67.2868 44.4611 67.2851 44.7777 67.4793 44.9736L70.2929 47.8124L67.4496 50.6304C67.2533 50.825 67.2517 51.1415 67.4459 51.3375C67.6401 51.5335 67.9567 51.5347 68.153 51.3401L71.3517 48.1698ZM0 47.5551L-0.00262742 48.0551L70.9973 48.315L71 47.815L71.0026 47.315L0.00262742 47.0551L0 47.5551Z" fill="black"/>
<path d="M0 47.5551L71 37.63" stroke="black"/>
<path d="M71.3517 48.1698C71.548 47.9753 71.5496 47.6587 71.3554 47.4627L68.1901 44.2691C67.9959 44.0732 67.6793 44.072 67.483 44.2666C67.2868 44.4611 67.2851 44.7777 67.4793 44.9736L70.2929 47.8124L67.4496 50.6304C67.2533 50.825 67.2517 51.1415 67.4459 51.3375C67.6401 51.5335 67.9567 51.5347 68.153 51.3401L71.3517 48.1698ZM0 47.5551L-0.00262742 48.0551L70.9973 48.315L71 47.815L71.0026 47.315L0.00262742 47.0551L0 47.5551Z" fill="black"/>
<path d="M0 47.5551L71 37.63" stroke="black"/>
<path d="M71.3517 58.3548C71.548 58.1603 71.5496 57.8437 71.3554 57.6478L68.1901 54.4542C67.9959 54.2582 67.6793 54.257 67.483 54.4516C67.2868 54.6461 67.2851 54.9627 67.4793 55.1587L70.2929 57.9974L67.4496 60.8155C67.2533 61.01 67.2517 61.3266 67.4459 61.5226C67.6401 61.7185 67.9567 61.7197 68.153 61.5251L71.3517 58.3548ZM0 57.7401L-0.00262742 58.2401L70.9973 58.5L71 58L71.0026 57.5L0.00262742 57.2401L0 57.7401Z" fill="black"/>
<path d="M0 57.7401L71 47.815" stroke="black"/>
<path d="M71.3517 58.3548C71.548 58.1603 71.5496 57.8437 71.3554 57.6478L68.1901 54.4542C67.9959 54.2582 67.6793 54.257 67.483 54.4516C67.2868 54.6461 67.2851 54.9627 67.4793 55.1587L70.2929 57.9974L67.4496 60.8155C67.2533 61.01 67.2517 61.3266 67.4459 61.5226C67.6401 61.7185 67.9567 61.7197 68.153 61.5251L71.3517 58.3548ZM0 57.7401L-0.00262742 58.2401L70.9973 58.5L71 58L71.0026 57.5L0.00262742 57.2401L0 57.7401Z" fill="black"/>
<path d="M0 57.7401L71 47.815" stroke="black"/>
<circle cx="115" cy="38" r="22.5" stroke="black"/>
<circle cx="130.5" cy="54.5" r="6.5" fill="white"/>
<circle cx="99.5" cy="22.5" r="6.5" fill="white"/>
<circle cx="97" cy="24" r="3.5" stroke="black"/>
<circle cx="133" cy="52" r="3.5" stroke="black"/>
<path d="M126.259 57.6827C126.331 57.416 126.173 57.1417 125.906 57.0699L121.561 55.901C121.294 55.8293 121.02 55.9873 120.948 56.2539C120.876 56.5206 121.034 56.7949 121.301 56.8667L125.164 57.9057L124.125 61.7684C124.053 62.0351 124.211 62.3094 124.478 62.3811C124.744 62.4529 125.019 62.2948 125.09 62.0282L126.259 57.6827ZM125 58L125.25 58.4333L126.026 57.986L125.776 57.5528L125.527 57.1195L124.75 57.5667L125 58Z" fill="black"/>
<path d="M103.508 18.6131C103.46 18.885 103.641 19.1444 103.913 19.1924L108.345 19.9744C108.617 20.0224 108.876 19.8409 108.924 19.5689C108.972 19.297 108.79 19.0376 108.518 18.9896L104.579 18.2945L105.274 14.3554C105.322 14.0834 105.141 13.8241 104.869 13.7761C104.597 13.7281 104.338 13.9096 104.29 14.1816L103.508 18.6131ZM105 18L104.713 17.5904L103.713 18.2904L104 18.7L104.287 19.1096L105.287 18.4096L105 18Z" fill="black"/>
<path d="M0.704545 8V2.18182H4.21591V2.80682H1.40909V4.77273H4.03409V5.39773H1.40909V7.375H4.26136V8H0.704545ZM5.89489 3.63636L6.94034 5.42045L7.9858 3.63636H8.75852L7.34943 5.81818L8.75852 8H7.9858L6.94034 6.30682L5.89489 8H5.12216L6.50852 5.81818L5.12216 3.63636H5.89489ZM11.3651 8.09091C10.9446 8.09091 10.5819 7.99811 10.277 7.8125C9.97396 7.625 9.74006 7.36364 9.57528 7.02841C9.41241 6.69129 9.33097 6.29924 9.33097 5.85227C9.33097 5.4053 9.41241 5.01136 9.57528 4.67045C9.74006 4.32765 9.96922 4.06061 10.2628 3.86932C10.5582 3.67614 10.9029 3.57955 11.2969 3.57955C11.5241 3.57955 11.7486 3.61742 11.9702 3.69318C12.1918 3.76894 12.3935 3.89205 12.5753 4.0625C12.7571 4.23106 12.902 4.45455 13.0099 4.73295C13.1179 5.01136 13.1719 5.35417 13.1719 5.76136V6.04545H9.80824V5.46591H12.4901C12.4901 5.2197 12.4408 5 12.3423 4.80682C12.2457 4.61364 12.1075 4.46117 11.9276 4.34943C11.7495 4.23769 11.5393 4.18182 11.2969 4.18182C11.0298 4.18182 10.7988 4.24811 10.6037 4.38068C10.4105 4.51136 10.2618 4.68182 10.1577 4.89205C10.0535 5.10227 10.0014 5.32765 10.0014 5.56818V5.95455C10.0014 6.28409 10.0582 6.56345 10.1719 6.79261C10.2874 7.01989 10.4474 7.19318 10.652 7.3125C10.8565 7.42992 11.0942 7.48864 11.3651 7.48864C11.5412 7.48864 11.7003 7.46402 11.8423 7.41477C11.9863 7.36364 12.1103 7.28788 12.2145 7.1875C12.3187 7.08523 12.3991 6.95833 12.456 6.80682L13.1037 6.98864C13.0355 7.20833 12.9209 7.40152 12.7599 7.56818C12.599 7.73295 12.4001 7.86174 12.1634 7.95455C11.9266 8.04545 11.6605 8.09091 11.3651 8.09091ZM15.9645 8.09091C15.5554 8.09091 15.2031 7.99432 14.9077 7.80114C14.6122 7.60795 14.3849 7.34186 14.2259 7.00284C14.0668 6.66383 13.9872 6.27652 13.9872 5.84091C13.9872 5.39773 14.0687 5.00663 14.2315 4.66761C14.3963 4.3267 14.6255 4.06061 14.919 3.86932C15.2145 3.67614 15.5592 3.57955 15.9531 3.57955C16.2599 3.57955 16.5365 3.63636 16.7827 3.75C17.0289 3.86364 17.2306 4.02273 17.3878 4.22727C17.545 4.43182 17.6425 4.67045 17.6804 4.94318H17.0099C16.9588 4.74432 16.8452 4.56818 16.669 4.41477C16.4948 4.25947 16.2599 4.18182 15.9645 4.18182C15.7031 4.18182 15.474 4.25 15.277 4.38636C15.0819 4.52083 14.9295 4.71117 14.8196 4.95739C14.7116 5.2017 14.6577 5.48864 14.6577 5.81818C14.6577 6.1553 14.7107 6.44886 14.8168 6.69886C14.9247 6.94886 15.0762 7.14299 15.2713 7.28125C15.4683 7.41951 15.6993 7.48864 15.9645 7.48864C16.1387 7.48864 16.2969 7.45833 16.4389 7.39773C16.581 7.33712 16.7012 7.25 16.7997 7.13636C16.8982 7.02273 16.9683 6.88636 17.0099 6.72727H17.6804C17.6425 6.98485 17.5488 7.21686 17.3991 7.4233C17.2514 7.62784 17.0554 7.79072 16.8111 7.91193C16.5687 8.03125 16.2865 8.09091 15.9645 8.09091ZM21.4105 6.21591V3.63636H22.081V8H21.4105V7.26136H21.3651C21.2628 7.48295 21.1037 7.6714 20.8878 7.8267C20.6719 7.98011 20.3991 8.05682 20.0696 8.05682C19.7969 8.05682 19.5545 7.99716 19.3423 7.87784C19.1302 7.75663 18.9635 7.57481 18.8423 7.33239C18.7211 7.08807 18.6605 6.7803 18.6605 6.40909V3.63636H19.331V6.36364C19.331 6.68182 19.42 6.93561 19.598 7.125C19.7779 7.31439 20.0071 7.40909 20.2855 7.40909C20.4522 7.40909 20.6217 7.36648 20.794 7.28125C20.9683 7.19602 21.1141 7.06534 21.2315 6.8892C21.3509 6.71307 21.4105 6.48864 21.4105 6.21591ZM25.2067 3.63636V4.20455H22.9453V3.63636H25.2067ZM23.6044 2.59091H24.2749V6.75C24.2749 6.93939 24.3023 7.08144 24.3572 7.17614C24.4141 7.26894 24.486 7.33144 24.5732 7.36364C24.6622 7.39394 24.7559 7.40909 24.8544 7.40909C24.9283 7.40909 24.9889 7.4053 25.0362 7.39773C25.0836 7.38826 25.1214 7.38068 25.1499 7.375L25.2862 7.97727C25.2408 7.99432 25.1773 8.01136 25.0959 8.02841C25.0144 8.04735 24.9112 8.05682 24.7862 8.05682C24.5968 8.05682 24.4112 8.0161 24.2294 7.93466C24.0495 7.85322 23.8999 7.72917 23.7805 7.5625C23.6631 7.39583 23.6044 7.18561 23.6044 6.93182V2.59091ZM26.2152 8V3.63636H26.8857V8H26.2152ZM26.5561 2.90909C26.4254 2.90909 26.3127 2.86458 26.218 2.77557C26.1252 2.68655 26.0788 2.57955 26.0788 2.45455C26.0788 2.32955 26.1252 2.22254 26.218 2.13352C26.3127 2.04451 26.4254 2 26.5561 2C26.6868 2 26.7985 2.04451 26.8913 2.13352C26.986 2.22254 27.0334 2.32955 27.0334 2.45455C27.0334 2.57955 26.986 2.68655 26.8913 2.77557C26.7985 2.86458 26.6868 2.90909 26.5561 2.90909ZM29.8864 8.09091C29.4924 8.09091 29.1468 7.99716 28.8494 7.80966C28.554 7.62216 28.3229 7.35985 28.1562 7.02273C27.9915 6.68561 27.9091 6.29167 27.9091 5.84091C27.9091 5.38636 27.9915 4.98958 28.1562 4.65057C28.3229 4.31155 28.554 4.0483 28.8494 3.8608C29.1468 3.6733 29.4924 3.57955 29.8864 3.57955C30.2803 3.57955 30.625 3.6733 30.9205 3.8608C31.2178 4.0483 31.4489 4.31155 31.6136 4.65057C31.7803 4.98958 31.8636 5.38636 31.8636 5.84091C31.8636 6.29167 31.7803 6.68561 31.6136 7.02273C31.4489 7.35985 31.2178 7.62216 30.9205 7.80966C30.625 7.99716 30.2803 8.09091 29.8864 8.09091ZM29.8864 7.48864C30.1856 7.48864 30.4318 7.41193 30.625 7.25852C30.8182 7.10511 30.9612 6.90341 31.054 6.65341C31.1468 6.40341 31.1932 6.13258 31.1932 5.84091C31.1932 5.54924 31.1468 5.27746 31.054 5.02557C30.9612 4.77367 30.8182 4.57008 30.625 4.41477C30.4318 4.25947 30.1856 4.18182 29.8864 4.18182C29.5871 4.18182 29.3409 4.25947 29.1477 4.41477C28.9545 4.57008 28.8116 4.77367 28.7188 5.02557C28.6259 5.27746 28.5795 5.54924 28.5795 5.84091C28.5795 6.13258 28.6259 6.40341 28.7188 6.65341C28.8116 6.90341 28.9545 7.10511 29.1477 7.25852C29.3409 7.41193 29.5871 7.48864 29.8864 7.48864ZM33.5575 5.375V8H32.8871V3.63636H33.5348V4.31818H33.5916C33.6939 4.09659 33.8492 3.91856 34.0575 3.78409C34.2659 3.64773 34.5348 3.57955 34.8643 3.57955C35.1598 3.57955 35.4183 3.64015 35.6399 3.76136C35.8615 3.88068 36.0339 4.0625 36.157 4.30682C36.2801 4.54924 36.3416 4.85606 36.3416 5.22727V8H35.6712V5.27273C35.6712 4.92992 35.5821 4.66288 35.4041 4.47159C35.2261 4.27841 34.9818 4.18182 34.6712 4.18182C34.4571 4.18182 34.2659 4.22822 34.0973 4.32102C33.9306 4.41383 33.799 4.54924 33.7024 4.72727C33.6058 4.9053 33.5575 5.12121 33.5575 5.375ZM40.1463 8H39.4077L41.544 2.18182H42.2713L44.4077 8H43.669L41.9304 3.10227H41.8849L40.1463 8ZM40.419 5.72727H43.3963V6.35227H40.419V5.72727ZM45.8935 5.375V8H45.223V3.63636H45.8707V4.31818H45.9276C46.0298 4.09659 46.1851 3.91856 46.3935 3.78409C46.6018 3.64773 46.8707 3.57955 47.2003 3.57955C47.4957 3.57955 47.7543 3.64015 47.9759 3.76136C48.1974 3.88068 48.3698 4.0625 48.4929 4.30682C48.616 4.54924 48.6776 4.85606 48.6776 5.22727V8H48.0071V5.27273C48.0071 4.92992 47.9181 4.66288 47.7401 4.47159C47.562 4.27841 47.3177 4.18182 47.0071 4.18182C46.7931 4.18182 46.6018 4.22822 46.4332 4.32102C46.2666 4.41383 46.1349 4.54924 46.0384 4.72727C45.9418 4.9053 45.8935 5.12121 45.8935 5.375ZM51.1868 8.10227C50.9103 8.10227 50.6593 8.05019 50.4339 7.94602C50.2086 7.83996 50.0296 7.6875 49.897 7.48864C49.7644 7.28788 49.6982 7.04545 49.6982 6.76136C49.6982 6.51136 49.7474 6.30871 49.8459 6.15341C49.9444 5.99621 50.076 5.87311 50.2408 5.78409C50.4055 5.69508 50.5874 5.62879 50.7862 5.58523C50.987 5.53977 51.1887 5.50379 51.3913 5.47727C51.6565 5.44318 51.8714 5.41761 52.0362 5.40057C52.2029 5.38163 52.3241 5.35038 52.3999 5.30682C52.4775 5.26326 52.5163 5.1875 52.5163 5.07955V5.05682C52.5163 4.77652 52.4396 4.55871 52.2862 4.40341C52.1347 4.24811 51.9046 4.17045 51.5959 4.17045C51.2758 4.17045 51.0249 4.24053 50.843 4.38068C50.6612 4.52083 50.5334 4.67045 50.4595 4.82955L49.8232 4.60227C49.9368 4.33712 50.0883 4.13068 50.2777 3.98295C50.469 3.83333 50.6773 3.72917 50.9027 3.67045C51.13 3.60985 51.3535 3.57955 51.5732 3.57955C51.7133 3.57955 51.8743 3.59659 52.0561 3.63068C52.2398 3.66288 52.4169 3.73011 52.5874 3.83239C52.7597 3.93466 52.9027 4.08902 53.0163 4.29545C53.13 4.50189 53.1868 4.77841 53.1868 5.125V8H52.5163V7.40909H52.4822C52.4368 7.50379 52.361 7.60511 52.255 7.71307C52.1489 7.82102 52.0078 7.91288 51.8317 7.98864C51.6555 8.06439 51.4406 8.10227 51.1868 8.10227ZM51.2891 7.5C51.5542 7.5 51.7777 7.44792 51.9595 7.34375C52.1432 7.23958 52.2815 7.10511 52.3743 6.94034C52.469 6.77557 52.5163 6.60227 52.5163 6.42045V5.80682C52.4879 5.84091 52.4254 5.87216 52.3288 5.90057C52.2341 5.92708 52.1243 5.95076 51.9993 5.97159C51.8762 5.99053 51.7559 6.00758 51.6385 6.02273C51.523 6.03598 51.4292 6.04735 51.3572 6.05682C51.183 6.07955 51.0201 6.11648 50.8686 6.16761C50.719 6.21686 50.5978 6.29167 50.505 6.39205C50.4141 6.49053 50.3686 6.625 50.3686 6.79545C50.3686 7.02841 50.4548 7.20455 50.6271 7.32386C50.8014 7.44129 51.022 7.5 51.2891 7.5ZM55.081 2.18182V8H54.4105V2.18182H55.081ZM56.7408 9.63636C56.6271 9.63636 56.5258 9.62689 56.4368 9.60795C56.3478 9.59091 56.2862 9.57386 56.2521 9.55682L56.4226 8.96591C56.5855 9.00758 56.7294 9.02273 56.8544 9.01136C56.9794 9 57.0902 8.94413 57.1868 8.84375C57.2853 8.74527 57.3752 8.58523 57.4567 8.36364L57.5817 8.02273L55.968 3.63636H56.6953L57.8999 7.11364H57.9453L59.1499 3.63636H59.8771L58.0249 8.63636C57.9415 8.86174 57.8383 9.0483 57.7152 9.19602C57.5921 9.34564 57.4491 9.45644 57.2862 9.52841C57.1252 9.60038 56.9434 9.63636 56.7408 9.63636ZM63.853 4.61364L63.2507 4.78409C63.2128 4.68371 63.157 4.58617 63.0831 4.49148C63.0111 4.39489 62.9126 4.31534 62.7876 4.25284C62.6626 4.19034 62.5026 4.15909 62.3075 4.15909C62.0405 4.15909 61.8179 4.22064 61.6399 4.34375C61.4638 4.46496 61.3757 4.61932 61.3757 4.80682C61.3757 4.97348 61.4363 5.10511 61.5575 5.2017C61.6787 5.2983 61.8681 5.37879 62.1257 5.44318L62.7734 5.60227C63.1636 5.69697 63.4543 5.84186 63.6456 6.03693C63.8369 6.23011 63.9325 6.47917 63.9325 6.78409C63.9325 7.03409 63.8606 7.25758 63.7166 7.45455C63.5746 7.65152 63.3757 7.80682 63.12 7.92045C62.8643 8.03409 62.567 8.09091 62.228 8.09091C61.7829 8.09091 61.4145 7.99432 61.1229 7.80114C60.8312 7.60795 60.6465 7.32576 60.5689 6.95455L61.2053 6.79545C61.2659 7.0303 61.3804 7.20644 61.549 7.32386C61.7195 7.44129 61.942 7.5 62.2166 7.5C62.5291 7.5 62.7772 7.43371 62.9609 7.30114C63.1465 7.16667 63.2393 7.00568 63.2393 6.81818C63.2393 6.66667 63.1863 6.53977 63.0803 6.4375C62.9742 6.33333 62.8113 6.25568 62.5916 6.20455L61.8643 6.03409C61.4647 5.93939 61.1712 5.79261 60.9837 5.59375C60.7981 5.39299 60.7053 5.14205 60.7053 4.84091C60.7053 4.5947 60.7744 4.37689 60.9126 4.1875C61.0528 3.99811 61.2431 3.84943 61.4837 3.74148C61.7261 3.63352 62.0007 3.57955 62.3075 3.57955C62.7393 3.57955 63.0784 3.67424 63.3246 3.86364C63.5727 4.05303 63.7488 4.30303 63.853 4.61364ZM64.9418 8V3.63636H65.6122V8H64.9418ZM65.2827 2.90909C65.152 2.90909 65.0393 2.86458 64.9446 2.77557C64.8518 2.68655 64.8054 2.57955 64.8054 2.45455C64.8054 2.32955 64.8518 2.22254 64.9446 2.13352C65.0393 2.04451 65.152 2 65.2827 2C65.4134 2 65.5251 2.04451 65.6179 2.13352C65.7126 2.22254 65.7599 2.32955 65.7599 2.45455C65.7599 2.57955 65.7126 2.68655 65.6179 2.77557C65.5251 2.86458 65.4134 2.90909 65.2827 2.90909ZM69.9311 4.61364L69.3288 4.78409C69.291 4.68371 69.2351 4.58617 69.1612 4.49148C69.0893 4.39489 68.9908 4.31534 68.8658 4.25284C68.7408 4.19034 68.5807 4.15909 68.3857 4.15909C68.1186 4.15909 67.8961 4.22064 67.718 4.34375C67.5419 4.46496 67.4538 4.61932 67.4538 4.80682C67.4538 4.97348 67.5144 5.10511 67.6357 5.2017C67.7569 5.2983 67.9463 5.37879 68.2038 5.44318L68.8516 5.60227C69.2417 5.69697 69.5324 5.84186 69.7237 6.03693C69.915 6.23011 70.0107 6.47917 70.0107 6.78409C70.0107 7.03409 69.9387 7.25758 69.7947 7.45455C69.6527 7.65152 69.4538 7.80682 69.1982 7.92045C68.9425 8.03409 68.6451 8.09091 68.3061 8.09091C67.861 8.09091 67.4927 7.99432 67.201 7.80114C66.9093 7.60795 66.7247 7.32576 66.647 6.95455L67.2834 6.79545C67.344 7.0303 67.4586 7.20644 67.6271 7.32386C67.7976 7.44129 68.0201 7.5 68.2947 7.5C68.6072 7.5 68.8554 7.43371 69.0391 7.30114C69.2247 7.16667 69.3175 7.00568 69.3175 6.81818C69.3175 6.66667 69.2644 6.53977 69.1584 6.4375C69.0523 6.33333 68.8894 6.25568 68.6697 6.20455L67.9425 6.03409C67.5429 5.93939 67.2493 5.79261 67.0618 5.59375C66.8762 5.39299 66.7834 5.14205 66.7834 4.84091C66.7834 4.5947 66.8525 4.37689 66.9908 4.1875C67.1309 3.99811 67.3213 3.84943 67.5618 3.74148C67.8042 3.63352 68.0788 3.57955 68.3857 3.57955C68.8175 3.57955 69.1565 3.67424 69.4027 3.86364C69.6508 4.05303 69.8269 4.30303 69.9311 4.61364Z" fill="black"/>
<path d="M89.7045 8V2.18182H91.6705C92.1269 2.18182 92.5 2.2642 92.7898 2.42898C93.0814 2.59186 93.2973 2.8125 93.4375 3.09091C93.5777 3.36932 93.6477 3.67992 93.6477 4.02273C93.6477 4.36553 93.5777 4.67708 93.4375 4.95739C93.2992 5.23769 93.0852 5.46117 92.7955 5.62784C92.5057 5.79261 92.1345 5.875 91.6818 5.875H90.2727V5.25H91.6591C91.9716 5.25 92.2225 5.19602 92.4119 5.08807C92.6013 4.98011 92.7386 4.83428 92.8239 4.65057C92.911 4.46496 92.9545 4.25568 92.9545 4.02273C92.9545 3.78977 92.911 3.58144 92.8239 3.39773C92.7386 3.21402 92.6004 3.07008 92.4091 2.96591C92.2178 2.85985 91.964 2.80682 91.6477 2.80682H90.4091V8H89.7045ZM96.4176 8.09091C96.0237 8.09091 95.678 7.99716 95.3807 7.80966C95.0852 7.62216 94.8542 7.35985 94.6875 7.02273C94.5227 6.68561 94.4403 6.29167 94.4403 5.84091C94.4403 5.38636 94.5227 4.98958 94.6875 4.65057C94.8542 4.31155 95.0852 4.0483 95.3807 3.8608C95.678 3.6733 96.0237 3.57955 96.4176 3.57955C96.8116 3.57955 97.1563 3.6733 97.4517 3.8608C97.7491 4.0483 97.9801 4.31155 98.1449 4.65057C98.3116 4.98958 98.3949 5.38636 98.3949 5.84091C98.3949 6.29167 98.3116 6.68561 98.1449 7.02273C97.9801 7.35985 97.7491 7.62216 97.4517 7.80966C97.1563 7.99716 96.8116 8.09091 96.4176 8.09091ZM96.4176 7.48864C96.7169 7.48864 96.9631 7.41193 97.1562 7.25852C97.3494 7.10511 97.4924 6.90341 97.5852 6.65341C97.678 6.40341 97.7244 6.13258 97.7244 5.84091C97.7244 5.54924 97.678 5.27746 97.5852 5.02557C97.4924 4.77367 97.3494 4.57008 97.1562 4.41477C96.9631 4.25947 96.7169 4.18182 96.4176 4.18182C96.1184 4.18182 95.8722 4.25947 95.679 4.41477C95.4858 4.57008 95.3428 4.77367 95.25 5.02557C95.1572 5.27746 95.1108 5.54924 95.1108 5.84091C95.1108 6.13258 95.1572 6.40341 95.25 6.65341C95.3428 6.90341 95.4858 7.10511 95.679 7.25852C95.8722 7.41193 96.1184 7.48864 96.4176 7.48864ZM102.509 4.61364L101.907 4.78409C101.869 4.68371 101.813 4.58617 101.739 4.49148C101.667 4.39489 101.569 4.31534 101.444 4.25284C101.319 4.19034 101.159 4.15909 100.964 4.15909C100.697 4.15909 100.474 4.22064 100.296 4.34375C100.12 4.46496 100.032 4.61932 100.032 4.80682C100.032 4.97348 100.093 5.10511 100.214 5.2017C100.335 5.2983 100.524 5.37879 100.782 5.44318L101.43 5.60227C101.82 5.69697 102.111 5.84186 102.302 6.03693C102.493 6.23011 102.589 6.47917 102.589 6.78409C102.589 7.03409 102.517 7.25758 102.373 7.45455C102.231 7.65152 102.032 7.80682 101.776 7.92045C101.521 8.03409 101.223 8.09091 100.884 8.09091C100.439 8.09091 100.071 7.99432 99.7791 7.80114C99.4875 7.60795 99.3028 7.32576 99.2251 6.95455L99.8615 6.79545C99.9221 7.0303 100.037 7.20644 100.205 7.32386C100.376 7.44129 100.598 7.5 100.873 7.5C101.185 7.5 101.433 7.43371 101.617 7.30114C101.803 7.16667 101.896 7.00568 101.896 6.81818C101.896 6.66667 101.843 6.53977 101.737 6.4375C101.63 6.33333 101.468 6.25568 101.248 6.20455L100.521 6.03409C100.121 5.93939 99.8274 5.79261 99.6399 5.59375C99.4543 5.39299 99.3615 5.14205 99.3615 4.84091C99.3615 4.5947 99.4306 4.37689 99.5689 4.1875C99.709 3.99811 99.8994 3.84943 100.14 3.74148C100.382 3.63352 100.657 3.57955 100.964 3.57955C101.396 3.57955 101.735 3.67424 101.981 3.86364C102.229 4.05303 102.405 4.30303 102.509 4.61364ZM105.496 3.63636V4.20455H103.234V3.63636H105.496ZM103.893 2.59091H104.564V6.75C104.564 6.93939 104.591 7.08144 104.646 7.17614C104.703 7.26894 104.775 7.33144 104.862 7.36364C104.951 7.39394 105.045 7.40909 105.143 7.40909C105.217 7.40909 105.278 7.4053 105.325 7.39773C105.373 7.38826 105.411 7.38068 105.439 7.375L105.575 7.97727C105.53 7.99432 105.466 8.01136 105.385 8.02841C105.304 8.04735 105.2 8.05682 105.075 8.05682C104.886 8.05682 104.7 8.0161 104.518 7.93466C104.339 7.85322 104.189 7.72917 104.07 7.5625C103.952 7.39583 103.893 7.18561 103.893 6.93182V2.59091ZM109.084 8H108.345L110.482 2.18182H111.209L113.345 8H112.607L110.868 3.10227H110.822L109.084 8ZM109.357 5.72727H112.334V6.35227H109.357V5.72727ZM114.831 5.375V8H114.161V3.63636H114.808V4.31818H114.865C114.967 4.09659 115.123 3.91856 115.331 3.78409C115.539 3.64773 115.808 3.57955 116.138 3.57955C116.433 3.57955 116.692 3.64015 116.913 3.76136C117.135 3.88068 117.307 4.0625 117.43 4.30682C117.554 4.54924 117.615 4.85606 117.615 5.22727V8H116.945V5.27273C116.945 4.92992 116.856 4.66288 116.678 4.47159C116.5 4.27841 116.255 4.18182 115.945 4.18182C115.731 4.18182 115.539 4.22822 115.371 4.32102C115.204 4.41383 115.072 4.54924 114.976 4.72727C114.879 4.9053 114.831 5.12121 114.831 5.375ZM120.124 8.10227C119.848 8.10227 119.597 8.05019 119.371 7.94602C119.146 7.83996 118.967 7.6875 118.835 7.48864C118.702 7.28788 118.636 7.04545 118.636 6.76136C118.636 6.51136 118.685 6.30871 118.783 6.15341C118.882 5.99621 119.013 5.87311 119.178 5.78409C119.343 5.69508 119.525 5.62879 119.724 5.58523C119.924 5.53977 120.126 5.50379 120.329 5.47727C120.594 5.44318 120.809 5.41761 120.974 5.40057C121.14 5.38163 121.262 5.35038 121.337 5.30682C121.415 5.26326 121.454 5.1875 121.454 5.07955V5.05682C121.454 4.77652 121.377 4.55871 121.224 4.40341C121.072 4.24811 120.842 4.17045 120.533 4.17045C120.213 4.17045 119.962 4.24053 119.781 4.38068C119.599 4.52083 119.471 4.67045 119.397 4.82955L118.761 4.60227C118.874 4.33712 119.026 4.13068 119.215 3.98295C119.406 3.83333 119.615 3.72917 119.84 3.67045C120.067 3.60985 120.291 3.57955 120.511 3.57955C120.651 3.57955 120.812 3.59659 120.994 3.63068C121.177 3.66288 121.354 3.73011 121.525 3.83239C121.697 3.93466 121.84 4.08902 121.954 4.29545C122.067 4.50189 122.124 4.77841 122.124 5.125V8H121.454V7.40909H121.42C121.374 7.50379 121.299 7.60511 121.192 7.71307C121.086 7.82102 120.945 7.91288 120.769 7.98864C120.593 8.06439 120.378 8.10227 120.124 8.10227ZM120.227 7.5C120.492 7.5 120.715 7.44792 120.897 7.34375C121.081 7.23958 121.219 7.10511 121.312 6.94034C121.406 6.77557 121.454 6.60227 121.454 6.42045V5.80682C121.425 5.84091 121.363 5.87216 121.266 5.90057C121.172 5.92708 121.062 5.95076 120.937 5.97159C120.814 5.99053 120.693 6.00758 120.576 6.02273C120.46 6.03598 120.367 6.04735 120.295 6.05682C120.121 6.07955 119.958 6.11648 119.806 6.16761C119.656 6.21686 119.535 6.29167 119.442 6.39205C119.352 6.49053 119.306 6.625 119.306 6.79545C119.306 7.02841 119.392 7.20455 119.565 7.32386C119.739 7.44129 119.96 7.5 120.227 7.5ZM124.018 2.18182V8H123.348V2.18182H124.018ZM125.678 9.63636C125.565 9.63636 125.463 9.62689 125.374 9.60795C125.285 9.59091 125.224 9.57386 125.19 9.55682L125.36 8.96591C125.523 9.00758 125.667 9.02273 125.792 9.01136C125.917 9 126.028 8.94413 126.124 8.84375C126.223 8.74527 126.313 8.58523 126.394 8.36364L126.519 8.02273L124.906 3.63636H125.633L126.837 7.11364H126.883L128.087 3.63636H128.815L126.962 8.63636C126.879 8.86174 126.776 9.0483 126.653 9.19602C126.53 9.34564 126.387 9.45644 126.224 9.52841C126.063 9.60038 125.881 9.63636 125.678 9.63636ZM132.79 4.61364L132.188 4.78409C132.15 4.68371 132.094 4.58617 132.021 4.49148C131.949 4.39489 131.85 4.31534 131.725 4.25284C131.6 4.19034 131.44 4.15909 131.245 4.15909C130.978 4.15909 130.755 4.22064 130.577 4.34375C130.401 4.46496 130.313 4.61932 130.313 4.80682C130.313 4.97348 130.374 5.10511 130.495 5.2017C130.616 5.2983 130.806 5.37879 131.063 5.44318L131.711 5.60227C132.101 5.69697 132.392 5.84186 132.583 6.03693C132.774 6.23011 132.87 6.47917 132.87 6.78409C132.87 7.03409 132.798 7.25758 132.654 7.45455C132.512 7.65152 132.313 7.80682 132.058 7.92045C131.802 8.03409 131.504 8.09091 131.165 8.09091C130.72 8.09091 130.352 7.99432 130.06 7.80114C129.769 7.60795 129.584 7.32576 129.506 6.95455L130.143 6.79545C130.203 7.0303 130.318 7.20644 130.487 7.32386C130.657 7.44129 130.879 7.5 131.154 7.5C131.467 7.5 131.715 7.43371 131.898 7.30114C132.084 7.16667 132.177 7.00568 132.177 6.81818C132.177 6.66667 132.124 6.53977 132.018 6.4375C131.912 6.33333 131.749 6.25568 131.529 6.20455L130.802 6.03409C130.402 5.93939 130.109 5.79261 129.921 5.59375C129.736 5.39299 129.643 5.14205 129.643 4.84091C129.643 4.5947 129.712 4.37689 129.85 4.1875C129.99 3.99811 130.181 3.84943 130.421 3.74148C130.664 3.63352 130.938 3.57955 131.245 3.57955C131.677 3.57955 132.016 3.67424 132.262 3.86364C132.51 4.05303 132.686 4.30303 132.79 4.61364ZM133.879 8V3.63636H134.55V8H133.879ZM134.22 2.90909C134.089 2.90909 133.977 2.86458 133.882 2.77557C133.789 2.68655 133.743 2.57955 133.743 2.45455C133.743 2.32955 133.789 2.22254 133.882 2.13352C133.977 2.04451 134.089 2 134.22 2C134.351 2 134.463 2.04451 134.555 2.13352C134.65 2.22254 134.697 2.32955 134.697 2.45455C134.697 2.57955 134.65 2.68655 134.555 2.77557C134.463 2.86458 134.351 2.90909 134.22 2.90909ZM138.869 4.61364L138.266 4.78409C138.228 4.68371 138.173 4.58617 138.099 4.49148C138.027 4.39489 137.928 4.31534 137.803 4.25284C137.678 4.19034 137.518 4.15909 137.323 4.15909C137.056 4.15909 136.834 4.22064 136.656 4.34375C136.479 4.46496 136.391 4.61932 136.391 4.80682C136.391 4.97348 136.452 5.10511 136.573 5.2017C136.694 5.2983 136.884 5.37879 137.141 5.44318L137.789 5.60227C138.179 5.69697 138.47 5.84186 138.661 6.03693C138.853 6.23011 138.948 6.47917 138.948 6.78409C138.948 7.03409 138.876 7.25758 138.732 7.45455C138.59 7.65152 138.391 7.80682 138.136 7.92045C137.88 8.03409 137.583 8.09091 137.244 8.09091C136.799 8.09091 136.43 7.99432 136.138 7.80114C135.847 7.60795 135.662 7.32576 135.585 6.95455L136.221 6.79545C136.281 7.0303 136.396 7.20644 136.565 7.32386C136.735 7.44129 136.958 7.5 137.232 7.5C137.545 7.5 137.793 7.43371 137.977 7.30114C138.162 7.16667 138.255 7.00568 138.255 6.81818C138.255 6.66667 138.202 6.53977 138.096 6.4375C137.99 6.33333 137.827 6.25568 137.607 6.20455L136.88 6.03409C136.48 5.93939 136.187 5.79261 135.999 5.59375C135.814 5.39299 135.721 5.14205 135.721 4.84091C135.721 4.5947 135.79 4.37689 135.928 4.1875C136.068 3.99811 136.259 3.84943 136.499 3.74148C136.742 3.63352 137.016 3.57955 137.323 3.57955C137.755 3.57955 138.094 3.67424 138.34 3.86364C138.588 4.05303 138.764 4.30303 138.869 4.61364Z" fill="black"/>
</g>
<defs>
<clipPath id="clip0_1_2">
<rect width="140" height="61" fill="white"/>
</clipPath>
</defs>
</svg>
