<svg width="140" height="66" viewBox="0 0 140 66" fill="none" xmlns="http://www.w3.org/2000/svg">
  <g clip-path="url(#clip0_1_2)">
  <path d="M71.3516 20.6084C71.548 20.4138 71.5497 20.0972 71.3555 19.9013L68.1906 16.708C67.9964 16.512 67.6798 16.5109 67.4835 16.7054C67.2872 16.9 67.2855 17.2166 67.4797 17.4125L70.2929 20.251L67.4493 23.0693C67.2529 23.2639 67.2512 23.5805 67.4454 23.7764C67.6397 23.9724 67.9562 23.9735 68.1525 23.7789L71.3516 20.6084ZM0 20L-0.0026931 20.5L70.9973 20.7535L71 20.2536L71.0027 19.7536L0.0026931 19.5L0 20Z" fill="black"/>
  <path d="M71.3517 30.7998C71.548 30.6052 71.5496 30.2886 71.3554 30.0927L68.1902 26.8991C67.9959 26.7031 67.6793 26.702 67.483 26.8965C67.2868 27.091 67.2851 27.4076 67.4793 27.6036L70.2929 30.4423L67.4496 33.2604C67.2533 33.4549 67.2517 33.7715 67.4459 33.9675C67.6401 34.1634 67.9567 34.1646 68.153 33.9701L71.3517 30.7998ZM0 30.185L-0.00262742 30.685L70.9973 30.9449L71 30.4449L71.0026 29.9449L0.00262742 29.685L0 30.185Z" fill="black"/>
  <path d="M0 30.185L71 20.2599" stroke="black"/>
  <path d="M71.3517 40.9848C71.548 40.7902 71.5496 40.4737 71.3554 40.2777L68.1902 37.0841C67.9959 36.8881 67.6793 36.887 67.483 37.0815C67.2868 37.2761 67.2851 37.5926 67.4793 37.7886L70.2929 40.6274L67.4496 43.4454C67.2533 43.6399 67.2517 43.9565 67.4459 44.1525C67.6401 44.3485 67.9567 44.3496 68.153 44.1551L71.3517 40.9848ZM0 40.3701L-0.00262742 40.87L70.9973 41.1299L71 40.63L71.0026 40.13L0.00262742 39.8701L0 40.3701Z" fill="black"/>
  <path d="M0 40.3701L71 30.4449" stroke="black"/>
  <path d="M71.3516 20.6084C71.548 20.4138 71.5497 20.0972 71.3555 19.9013L68.1906 16.708C67.9964 16.512 67.6798 16.5109 67.4835 16.7054C67.2872 16.9 67.2855 17.2166 67.4797 17.4125L70.2929 20.251L67.4493 23.0693C67.2529 23.2639 67.2512 23.5805 67.4454 23.7764C67.6397 23.9724 67.9562 23.9735 68.1525 23.7789L71.3516 20.6084ZM0 20L-0.0026931 20.5L70.9973 20.7535L71 20.2536L71.0027 19.7536L0.0026931 19.5L0 20Z" fill="black"/>
  <path d="M71.3517 30.7998C71.548 30.6052 71.5496 30.2886 71.3554 30.0927L68.1902 26.8991C67.9959 26.7031 67.6793 26.702 67.483 26.8965C67.2868 27.091 67.2851 27.4076 67.4793 27.6036L70.2929 30.4423L67.4496 33.2604C67.2533 33.4549 67.2517 33.7715 67.4459 33.9675C67.6401 34.1634 67.9567 34.1646 68.153 33.9701L71.3517 30.7998ZM0 30.185L-0.00262742 30.685L70.9973 30.9449L71 30.4449L71.0026 29.9449L0.00262742 29.685L0 30.185Z" fill="black"/>
  <path d="M0 30.185L71 20.2599" stroke="black"/>
  <path d="M71.3517 40.9848C71.548 40.7902 71.5496 40.4737 71.3554 40.2777L68.1902 37.0841C67.9959 36.8881 67.6793 36.887 67.483 37.0815C67.2868 37.2761 67.2851 37.5926 67.4793 37.7886L70.2929 40.6274L67.4496 43.4454C67.2533 43.6399 67.2517 43.9565 67.4459 44.1525C67.6401 44.3485 67.9567 44.3496 68.153 44.1551L71.3517 40.9848ZM0 40.3701L-0.00262742 40.87L70.9973 41.1299L71 40.63L71.0026 40.13L0.00262742 39.8701L0 40.3701Z" fill="black"/>
  <path d="M0 40.3701L71 30.4449" stroke="black"/>
  <path d="M71.3517 51.1698C71.548 50.9753 71.5496 50.6587 71.3554 50.4627L68.1902 47.2691C67.9959 47.0732 67.6793 47.072 67.483 47.2666C67.2868 47.4611 67.2851 47.7777 67.4793 47.9736L70.2929 50.8124L67.4496 53.6304C67.2533 53.825 67.2517 54.1415 67.4459 54.3375C67.6401 54.5335 67.9567 54.5347 68.153 54.3401L71.3517 51.1698ZM0 50.5551L-0.00262742 51.0551L70.9973 51.315L71 50.815L71.0026 50.315L0.00262742 50.0551L0 50.5551Z" fill="black"/>
  <path d="M0 50.5551L71 40.63" stroke="black"/>
  <path d="M71.3517 51.1698C71.548 50.9753 71.5496 50.6587 71.3554 50.4627L68.1902 47.2691C67.9959 47.0732 67.6793 47.072 67.483 47.2666C67.2868 47.4611 67.2851 47.7777 67.4793 47.9736L70.2929 50.8124L67.4496 53.6304C67.2533 53.825 67.2517 54.1415 67.4459 54.3375C67.6401 54.5335 67.9567 54.5347 68.153 54.3401L71.3517 51.1698ZM0 50.5551L-0.00262742 51.0551L70.9973 51.315L71 50.815L71.0026 50.315L0.00262742 50.0551L0 50.5551Z" fill="black"/>
  <path d="M0 50.5551L71 40.63" stroke="black"/>
  <path d="M71.3517 61.3548C71.548 61.1603 71.5496 60.8437 71.3554 60.6478L68.1902 57.4542C67.9959 57.2582 67.6793 57.257 67.483 57.4516C67.2868 57.6461 67.2851 57.9627 67.4793 58.1587L70.2929 60.9974L67.4496 63.8155C67.2533 64.01 67.2517 64.3266 67.4459 64.5226C67.6401 64.7185 67.9567 64.7197 68.153 64.5251L71.3517 61.3548ZM0 60.7401L-0.00262742 61.2401L70.9973 61.5L71 61L71.0026 60.5L0.00262742 60.2401L0 60.7401Z" fill="black"/>
  <path d="M0 60.7401L71 50.815" stroke="black"/>
  <path d="M71.3517 61.3548C71.548 61.1603 71.5496 60.8437 71.3554 60.6478L68.1902 57.4542C67.9959 57.2582 67.6793 57.257 67.483 57.4516C67.2868 57.6461 67.2851 57.9627 67.4793 58.1587L70.2929 60.9974L67.4496 63.8155C67.2533 64.01 67.2517 64.3266 67.4459 64.5226C67.6401 64.7185 67.9567 64.7197 68.153 64.5251L71.3517 61.3548ZM0 60.7401L-0.00262742 61.2401L70.9973 61.5L71 61L71.0026 60.5L0.00262742 60.2401L0 60.7401Z" fill="black"/>
  <path d="M0 60.7401L71 50.815" stroke="black"/>
  <circle cx="115" cy="41" r="22.5" stroke="black"/>
  <circle cx="130.5" cy="57.5" r="6.5" fill="white"/>
  <circle cx="99.5" cy="25.5" r="6.5" fill="white"/>
  <circle cx="97" cy="27" r="3.5" stroke="black"/>
  <circle cx="133" cy="55" r="3.5" stroke="black"/>
  <path d="M126.259 60.6827C126.331 60.416 126.173 60.1417 125.906 60.0699L121.561 58.901C121.294 58.8293 121.02 58.9873 120.948 59.2539C120.876 59.5206 121.034 59.7949 121.301 59.8667L125.164 60.9057L124.125 64.7684C124.053 65.0351 124.211 65.3094 124.478 65.3811C124.744 65.4529 125.019 65.2948 125.09 65.0282L126.259 60.6827ZM125 61L125.25 61.4333L126.026 60.986L125.776 60.5528L125.527 60.1195L124.75 60.5667L125 61Z" fill="black"/>
  <path d="M103.508 21.6131C103.46 21.885 103.641 22.1444 103.913 22.1924L108.345 22.9744C108.617 23.0224 108.876 22.8409 108.924 22.5689C108.972 22.297 108.79 22.0376 108.518 21.9896L104.579 21.2945L105.274 17.3554C105.322 17.0834 105.141 16.8241 104.869 16.7761C104.597 16.7281 104.338 16.9096 104.29 17.1816L103.508 21.6131ZM105 21L104.713 20.5904L103.713 21.2904L104 21.7L104.287 22.1096L105.287 21.4096L105 21Z" fill="black"/>
  <path d="M20.283 6H19.5444L21.6808 0.181818H22.408L24.5444 6H23.8058L22.0671 1.10227H22.0217L20.283 6ZM20.5558 3.72727H23.533V4.35227H20.5558V3.72727ZM25.4506 6V0.181818H26.1211V2.32955H26.1779C26.2272 2.25379 26.2953 2.1572 26.3825 2.03977C26.4715 1.92045 26.5984 1.81439 26.7631 1.72159C26.9298 1.62689 27.1552 1.57955 27.4393 1.57955C27.8067 1.57955 28.1306 1.6714 28.4109 1.85511C28.6912 2.03883 28.9099 2.29924 29.0671 2.63636C29.2243 2.97348 29.3029 3.37121 29.3029 3.82955C29.3029 4.29167 29.2243 4.69223 29.0671 5.03125C28.9099 5.36837 28.6921 5.62973 28.4137 5.81534C28.1353 5.99905 27.8143 6.09091 27.4506 6.09091C27.1703 6.09091 26.9459 6.04451 26.7773 5.9517C26.6088 5.85701 26.479 5.75 26.3881 5.63068C26.2972 5.50947 26.2272 5.40909 26.1779 5.32955H26.0984V6H25.4506ZM26.1097 3.81818C26.1097 4.14773 26.158 4.43845 26.2546 4.69034C26.3512 4.94034 26.4923 5.13636 26.6779 5.27841C26.8635 5.41856 27.0908 5.48864 27.3597 5.48864C27.64 5.48864 27.8739 5.41477 28.0614 5.26705C28.2508 5.11742 28.3929 4.91667 28.4876 4.66477C28.5842 4.41098 28.6325 4.12879 28.6325 3.81818C28.6325 3.51136 28.5851 3.23485 28.4904 2.98864C28.3976 2.74053 28.2565 2.54451 28.0671 2.40057C27.8796 2.25473 27.6438 2.18182 27.3597 2.18182C27.087 2.18182 26.8578 2.25095 26.6722 2.3892C26.4866 2.52557 26.3465 2.71686 26.2518 2.96307C26.1571 3.20739 26.1097 3.49242 26.1097 3.81818ZM33.4194 2.61364L32.8171 2.78409C32.7792 2.68371 32.7234 2.58617 32.6495 2.49148C32.5775 2.39489 32.479 2.31534 32.354 2.25284C32.229 2.19034 32.069 2.15909 31.8739 2.15909C31.6069 2.15909 31.3844 2.22064 31.2063 2.34375C31.0302 2.46496 30.9421 2.61932 30.9421 2.80682C30.9421 2.97348 31.0027 3.10511 31.1239 3.2017C31.2451 3.2983 31.4345 3.37879 31.6921 3.44318L32.3398 3.60227C32.73 3.69697 33.0207 3.84186 33.212 4.03693C33.4033 4.23011 33.4989 4.47917 33.4989 4.78409C33.4989 5.03409 33.427 5.25758 33.283 5.45455C33.141 5.65152 32.9421 5.80682 32.6864 5.92045C32.4308 6.03409 32.1334 6.09091 31.7944 6.09091C31.3493 6.09091 30.9809 5.99432 30.6893 5.80114C30.3976 5.60795 30.2129 5.32576 30.1353 4.95455L30.7717 4.79545C30.8323 5.0303 30.9469 5.20644 31.1154 5.32386C31.2859 5.44129 31.5084 5.5 31.783 5.5C32.0955 5.5 32.3436 5.43371 32.5273 5.30114C32.7129 5.16667 32.8058 5.00568 32.8058 4.81818C32.8058 4.66667 32.7527 4.53977 32.6467 4.4375C32.5406 4.33333 32.3777 4.25568 32.158 4.20455L31.4308 4.03409C31.0311 3.93939 30.7376 3.79261 30.5501 3.59375C30.3645 3.39299 30.2717 3.14205 30.2717 2.84091C30.2717 2.5947 30.3408 2.37689 30.479 2.1875C30.6192 1.99811 30.8095 1.84943 31.0501 1.74148C31.2925 1.63352 31.5671 1.57955 31.8739 1.57955C32.3058 1.57955 32.6448 1.67424 32.891 1.86364C33.1391 2.05303 33.3152 2.30303 33.4194 2.61364ZM36.4059 1.63636V2.20455H34.1445V1.63636H36.4059ZM34.8036 0.590909H35.4741V4.75C35.4741 4.93939 35.5015 5.08144 35.5565 5.17614C35.6133 5.26894 35.6853 5.33144 35.7724 5.36364C35.8614 5.39394 35.9551 5.40909 36.0536 5.40909C36.1275 5.40909 36.1881 5.4053 36.2354 5.39773C36.2828 5.38826 36.3207 5.38068 36.3491 5.375L36.4854 5.97727C36.44 5.99432 36.3765 6.01136 36.2951 6.02841C36.2137 6.04735 36.1104 6.05682 35.9854 6.05682C35.796 6.05682 35.6104 6.0161 35.4286 5.93466C35.2487 5.85322 35.0991 5.72917 34.9798 5.5625C34.8623 5.39583 34.8036 5.18561 34.8036 4.93182V0.590909ZM37.4144 6V1.63636H38.0621V2.29545H38.1076C38.1871 2.07955 38.3311 1.90436 38.5394 1.76989C38.7478 1.63542 38.9826 1.56818 39.244 1.56818C39.2932 1.56818 39.3548 1.56913 39.4286 1.57102C39.5025 1.57292 39.5584 1.57576 39.5962 1.57955V2.26136C39.5735 2.25568 39.5214 2.24716 39.44 2.2358C39.3604 2.22254 39.2762 2.21591 39.1871 2.21591C38.975 2.21591 38.7856 2.26042 38.619 2.34943C38.4542 2.43655 38.3235 2.55777 38.2269 2.71307C38.1322 2.86648 38.0849 3.04167 38.0849 3.23864V6H37.4144ZM41.6751 6.10227C41.3986 6.10227 41.1476 6.05019 40.9222 5.94602C40.6969 5.83996 40.5179 5.6875 40.3853 5.48864C40.2527 5.28788 40.1864 5.04545 40.1864 4.76136C40.1864 4.51136 40.2357 4.30871 40.3342 4.15341C40.4326 3.99621 40.5643 3.87311 40.729 3.78409C40.8938 3.69508 41.0756 3.62879 41.2745 3.58523C41.4753 3.53977 41.677 3.50379 41.8796 3.47727C42.1448 3.44318 42.3597 3.41761 42.5245 3.40057C42.6912 3.38163 42.8124 3.35038 42.8881 3.30682C42.9658 3.26326 43.0046 3.1875 43.0046 3.07955V3.05682C43.0046 2.77652 42.9279 2.55871 42.7745 2.40341C42.623 2.24811 42.3929 2.17045 42.0842 2.17045C41.7641 2.17045 41.5131 2.24053 41.3313 2.38068C41.1495 2.52083 41.0217 2.67045 40.9478 2.82955L40.3114 2.60227C40.4251 2.33712 40.5766 2.13068 40.766 1.98295C40.9573 1.83333 41.1656 1.72917 41.391 1.67045C41.6183 1.60985 41.8417 1.57955 42.0614 1.57955C42.2016 1.57955 42.3626 1.59659 42.5444 1.63068C42.7281 1.66288 42.9052 1.73011 43.0756 1.83239C43.248 1.93466 43.391 2.08902 43.5046 2.29545C43.6183 2.50189 43.6751 2.77841 43.6751 3.125V6H43.0046V5.40909H42.9705C42.9251 5.50379 42.8493 5.60511 42.7433 5.71307C42.6372 5.82102 42.4961 5.91288 42.32 5.98864C42.1438 6.06439 41.9289 6.10227 41.6751 6.10227ZM41.7773 5.5C42.0425 5.5 42.266 5.44792 42.4478 5.34375C42.6315 5.23958 42.7698 5.10511 42.8626 4.94034C42.9573 4.77557 43.0046 4.60227 43.0046 4.42045V3.80682C42.9762 3.84091 42.9137 3.87216 42.8171 3.90057C42.7224 3.92708 42.6126 3.95076 42.4876 3.97159C42.3645 3.99053 42.2442 4.00758 42.1268 4.02273C42.0112 4.03598 41.9175 4.04735 41.8455 4.05682C41.6713 4.07955 41.5084 4.11648 41.3569 4.16761C41.2073 4.21686 41.0861 4.29167 40.9933 4.39205C40.9023 4.49053 40.8569 4.625 40.8569 4.79545C40.8569 5.02841 40.9431 5.20455 41.1154 5.32386C41.2897 5.44129 41.5103 5.5 41.7773 5.5ZM46.6715 6.09091C46.2624 6.09091 45.9102 5.99432 45.6147 5.80114C45.3192 5.60795 45.092 5.34186 44.9329 5.00284C44.7738 4.66383 44.6942 4.27652 44.6942 3.84091C44.6942 3.39773 44.7757 3.00663 44.9386 2.66761C45.1033 2.3267 45.3325 2.06061 45.6261 1.86932C45.9215 1.67614 46.2662 1.57955 46.6602 1.57955C46.967 1.57955 47.2435 1.63636 47.4897 1.75C47.7359 1.86364 47.9376 2.02273 48.0948 2.22727C48.252 2.43182 48.3496 2.67045 48.3874 2.94318H47.717C47.6658 2.74432 47.5522 2.56818 47.3761 2.41477C47.2018 2.25947 46.967 2.18182 46.6715 2.18182C46.4102 2.18182 46.181 2.25 45.984 2.38636C45.7889 2.52083 45.6365 2.71117 45.5266 2.95739C45.4187 3.2017 45.3647 3.48864 45.3647 3.81818C45.3647 4.1553 45.4177 4.44886 45.5238 4.69886C45.6317 4.94886 45.7833 5.14299 45.9783 5.28125C46.1753 5.41951 46.4064 5.48864 46.6715 5.48864C46.8458 5.48864 47.0039 5.45833 47.146 5.39773C47.288 5.33712 47.4083 5.25 47.5067 5.13636C47.6052 5.02273 47.6753 4.88636 47.717 4.72727H48.3874C48.3496 4.98485 48.2558 5.21686 48.1062 5.4233C47.9585 5.62784 47.7624 5.79072 47.5181 5.91193C47.2757 6.03125 46.9935 6.09091 46.6715 6.09091ZM51.2653 1.63636V2.20455H49.0039V1.63636H51.2653ZM49.663 0.590909H50.3335V4.75C50.3335 4.93939 50.3609 5.08144 50.4158 5.17614C50.4727 5.26894 50.5446 5.33144 50.6317 5.36364C50.7208 5.39394 50.8145 5.40909 50.913 5.40909C50.9869 5.40909 51.0475 5.4053 51.0948 5.39773C51.1422 5.38826 51.18 5.38068 51.2085 5.375L51.3448 5.97727C51.2994 5.99432 51.2359 6.01136 51.1545 6.02841C51.073 6.04735 50.9698 6.05682 50.8448 6.05682C50.6554 6.05682 50.4698 6.0161 50.288 5.93466C50.1081 5.85322 49.9585 5.72917 49.8391 5.5625C49.7217 5.39583 49.663 5.18561 49.663 4.93182V0.590909ZM11.2411 7.18182V13H10.5366V7.18182H11.2411ZM13.2333 10.375V13H12.5629V8.63636H13.2106V9.31818H13.2674C13.3697 9.09659 13.525 8.91856 13.7333 8.78409C13.9416 8.64773 14.2106 8.57955 14.5401 8.57955C14.8356 8.57955 15.0941 8.64015 15.3157 8.76136C15.5373 8.88068 15.7096 9.0625 15.8327 9.30682C15.9558 9.54924 16.0174 9.85606 16.0174 10.2273V13H15.3469V10.2727C15.3469 9.92992 15.2579 9.66288 15.0799 9.47159C14.9019 9.27841 14.6576 9.18182 14.3469 9.18182C14.1329 9.18182 13.9416 9.22822 13.7731 9.32102C13.6064 9.41383 13.4748 9.54924 13.3782 9.72727C13.2816 9.9053 13.2333 10.1212 13.2333 10.375ZM19.1403 8.63636V9.20455H16.8789V8.63636H19.1403ZM17.538 7.59091H18.2085V11.75C18.2085 11.9394 18.2359 12.0814 18.2908 12.1761C18.3477 12.2689 18.4196 12.3314 18.5067 12.3636C18.5958 12.3939 18.6895 12.4091 18.788 12.4091C18.8619 12.4091 18.9225 12.4053 18.9698 12.3977C19.0172 12.3883 19.055 12.3807 19.0835 12.375L19.2198 12.9773C19.1744 12.9943 19.1109 13.0114 19.0295 13.0284C18.948 13.0473 18.8448 13.0568 18.7198 13.0568C18.5304 13.0568 18.3448 13.0161 18.163 12.9347C17.9831 12.8532 17.8335 12.7292 17.7141 12.5625C17.5967 12.3958 17.538 12.1856 17.538 11.9318V7.59091ZM21.9315 13.0909C21.511 13.0909 21.1483 12.9981 20.8434 12.8125C20.5404 12.625 20.3065 12.3636 20.1417 12.0284C19.9788 11.6913 19.8974 11.2992 19.8974 10.8523C19.8974 10.4053 19.9788 10.0114 20.1417 9.67045C20.3065 9.32765 20.5356 9.06061 20.8292 8.86932C21.1246 8.67614 21.4693 8.57955 21.8633 8.57955C22.0906 8.57955 22.315 8.61742 22.5366 8.69318C22.7582 8.76894 22.9599 8.89205 23.1417 9.0625C23.3235 9.23106 23.4684 9.45455 23.5763 9.73295C23.6843 10.0114 23.7383 10.3542 23.7383 10.7614V11.0455H20.3746V10.4659H23.0565C23.0565 10.2197 23.0072 10 22.9087 9.80682C22.8121 9.61364 22.6739 9.46117 22.494 9.34943C22.3159 9.23769 22.1057 9.18182 21.8633 9.18182C21.5962 9.18182 21.3652 9.24811 21.1701 9.38068C20.9769 9.51136 20.8282 9.68182 20.7241 9.89205C20.6199 10.1023 20.5678 10.3277 20.5678 10.5682V10.9545C20.5678 11.2841 20.6246 11.5634 20.7383 11.7926C20.8538 12.0199 21.0138 12.1932 21.2184 12.3125C21.4229 12.4299 21.6606 12.4886 21.9315 12.4886C22.1076 12.4886 22.2667 12.464 22.4087 12.4148C22.5527 12.3636 22.6767 12.2879 22.7809 12.1875C22.8851 12.0852 22.9656 11.9583 23.0224 11.8068L23.6701 11.9886C23.6019 12.2083 23.4873 12.4015 23.3263 12.5682C23.1654 12.733 22.9665 12.8617 22.7298 12.9545C22.493 13.0455 22.2269 13.0909 21.9315 13.0909ZM24.7582 13V8.63636H25.4059V9.29545H25.4513C25.5309 9.07955 25.6748 8.90436 25.8832 8.76989C26.0915 8.63542 26.3263 8.56818 26.5877 8.56818C26.637 8.56818 26.6985 8.56913 26.7724 8.57102C26.8462 8.57292 26.9021 8.57576 26.94 8.57955V9.26136C26.9173 9.25568 26.8652 9.24716 26.7837 9.2358C26.7042 9.22254 26.6199 9.21591 26.5309 9.21591C26.3188 9.21591 26.1294 9.26042 25.9627 9.34943C25.7979 9.43655 25.6673 9.55777 25.5707 9.71307C25.476 9.86648 25.4286 10.0417 25.4286 10.2386V13H24.7582ZM27.7347 14.6364V8.63636H28.3825V9.32955H28.462C28.5112 9.25379 28.5794 9.1572 28.6665 9.03977C28.7556 8.92045 28.8825 8.81439 29.0472 8.72159C29.2139 8.62689 29.4393 8.57955 29.7234 8.57955C30.0908 8.57955 30.4147 8.6714 30.695 8.85511C30.9753 9.03883 31.194 9.29924 31.3512 9.63636C31.5084 9.97348 31.587 10.3712 31.587 10.8295C31.587 11.2917 31.5084 11.6922 31.3512 12.0312C31.194 12.3684 30.9762 12.6297 30.6978 12.8153C30.4194 12.9991 30.0984 13.0909 29.7347 13.0909C29.4544 13.0909 29.23 13.0445 29.0614 12.9517C28.8929 12.857 28.7631 12.75 28.6722 12.6307C28.5813 12.5095 28.5112 12.4091 28.462 12.3295H28.4052V14.6364H27.7347ZM28.3938 10.8182C28.3938 11.1477 28.4421 11.4384 28.5387 11.6903C28.6353 11.9403 28.7764 12.1364 28.962 12.2784C29.1476 12.4186 29.3749 12.4886 29.6438 12.4886C29.9241 12.4886 30.158 12.4148 30.3455 12.267C30.5349 12.1174 30.677 11.9167 30.7717 11.6648C30.8683 11.411 30.9165 11.1288 30.9165 10.8182C30.9165 10.5114 30.8692 10.2348 30.7745 9.98864C30.6817 9.74053 30.5406 9.54451 30.3512 9.40057C30.1637 9.25473 29.9279 9.18182 29.6438 9.18182C29.3711 9.18182 29.1419 9.25095 28.9563 9.3892C28.7707 9.52557 28.6306 9.71686 28.5359 9.96307C28.4412 10.2074 28.3938 10.4924 28.3938 10.8182ZM32.6097 13V8.63636H33.2575V9.29545H33.3029C33.3825 9.07955 33.5264 8.90436 33.7347 8.76989C33.9431 8.63542 34.1779 8.56818 34.4393 8.56818C34.4885 8.56818 34.5501 8.56913 34.6239 8.57102C34.6978 8.57292 34.7537 8.57576 34.7915 8.57955V9.26136C34.7688 9.25568 34.7167 9.24716 34.6353 9.2358C34.5558 9.22254 34.4715 9.21591 34.3825 9.21591C34.1703 9.21591 33.9809 9.26042 33.8143 9.34943C33.6495 9.43655 33.5188 9.55777 33.4222 9.71307C33.3275 9.86648 33.2802 10.0417 33.2802 10.2386V13H32.6097ZM37.283 13.0909C36.8626 13.0909 36.4999 12.9981 36.195 12.8125C35.8919 12.625 35.658 12.3636 35.4933 12.0284C35.3304 11.6913 35.2489 11.2992 35.2489 10.8523C35.2489 10.4053 35.3304 10.0114 35.4933 9.67045C35.658 9.32765 35.8872 9.06061 36.1808 8.86932C36.4762 8.67614 36.8209 8.57955 37.2148 8.57955C37.4421 8.57955 37.6665 8.61742 37.8881 8.69318C38.1097 8.76894 38.3114 8.89205 38.4933 9.0625C38.6751 9.23106 38.82 9.45455 38.9279 9.73295C39.0359 10.0114 39.0898 10.3542 39.0898 10.7614V11.0455H35.7262V10.4659H38.408C38.408 10.2197 38.3588 10 38.2603 9.80682C38.1637 9.61364 38.0254 9.46117 37.8455 9.34943C37.6675 9.23769 37.4573 9.18182 37.2148 9.18182C36.9478 9.18182 36.7167 9.24811 36.5217 9.38068C36.3285 9.51136 36.1798 9.68182 36.0756 9.89205C35.9715 10.1023 35.9194 10.3277 35.9194 10.5682V10.9545C35.9194 11.2841 35.9762 11.5634 36.0898 11.7926C36.2054 12.0199 36.3654 12.1932 36.57 12.3125C36.7745 12.4299 37.0122 12.4886 37.283 12.4886C37.4592 12.4886 37.6183 12.464 37.7603 12.4148C37.9042 12.3636 38.0283 12.2879 38.1325 12.1875C38.2366 12.0852 38.3171 11.9583 38.3739 11.8068L39.0217 11.9886C38.9535 12.2083 38.8389 12.4015 38.6779 12.5682C38.5169 12.733 38.3181 12.8617 38.0813 12.9545C37.8446 13.0455 37.5785 13.0909 37.283 13.0909ZM42.0075 8.63636V9.20455H39.7461V8.63636H42.0075ZM40.4052 7.59091H41.0756V11.75C41.0756 11.9394 41.1031 12.0814 41.158 12.1761C41.2148 12.2689 41.2868 12.3314 41.3739 12.3636C41.4629 12.3939 41.5567 12.4091 41.6552 12.4091C41.729 12.4091 41.7897 12.4053 41.837 12.3977C41.8844 12.3883 41.9222 12.3807 41.9506 12.375L42.087 12.9773C42.0415 12.9943 41.9781 13.0114 41.8967 13.0284C41.8152 13.0473 41.712 13.0568 41.587 13.0568C41.3976 13.0568 41.212 13.0161 41.0302 12.9347C40.8503 12.8532 40.7006 12.7292 40.5813 12.5625C40.4639 12.3958 40.4052 12.1856 40.4052 11.9318V7.59091ZM44.3001 13.1023C44.0236 13.1023 43.7726 13.0502 43.5472 12.946C43.3219 12.84 43.1429 12.6875 43.0103 12.4886C42.8777 12.2879 42.8114 12.0455 42.8114 11.7614C42.8114 11.5114 42.8607 11.3087 42.9592 11.1534C43.0576 10.9962 43.1893 10.8731 43.354 10.7841C43.5188 10.6951 43.7006 10.6288 43.8995 10.5852C44.1003 10.5398 44.302 10.5038 44.5046 10.4773C44.7698 10.4432 44.9847 10.4176 45.1495 10.4006C45.3162 10.3816 45.4374 10.3504 45.5131 10.3068C45.5908 10.2633 45.6296 10.1875 45.6296 10.0795V10.0568C45.6296 9.77652 45.5529 9.55871 45.3995 9.40341C45.248 9.24811 45.0179 9.17045 44.7092 9.17045C44.3891 9.17045 44.1381 9.24053 43.9563 9.38068C43.7745 9.52083 43.6467 9.67045 43.5728 9.82955L42.9364 9.60227C43.0501 9.33712 43.2016 9.13068 43.391 8.98295C43.5823 8.83333 43.7906 8.72917 44.016 8.67045C44.2433 8.60985 44.4667 8.57955 44.6864 8.57955C44.8266 8.57955 44.9876 8.59659 45.1694 8.63068C45.3531 8.66288 45.5302 8.73011 45.7006 8.83239C45.873 8.93466 46.016 9.08902 46.1296 9.29545C46.2433 9.50189 46.3001 9.77841 46.3001 10.125V13H45.6296V12.4091H45.5955C45.5501 12.5038 45.4743 12.6051 45.3683 12.7131C45.2622 12.821 45.1211 12.9129 44.945 12.9886C44.7688 13.0644 44.5539 13.1023 44.3001 13.1023ZM44.4023 12.5C44.6675 12.5 44.891 12.4479 45.0728 12.3438C45.2565 12.2396 45.3948 12.1051 45.4876 11.9403C45.5823 11.7756 45.6296 11.6023 45.6296 11.4205V10.8068C45.6012 10.8409 45.5387 10.8722 45.4421 10.9006C45.3474 10.9271 45.2376 10.9508 45.1126 10.9716C44.9895 10.9905 44.8692 11.0076 44.7518 11.0227C44.6362 11.036 44.5425 11.0473 44.4705 11.0568C44.2963 11.0795 44.1334 11.1165 43.9819 11.1676C43.8323 11.2169 43.7111 11.2917 43.6183 11.392C43.5273 11.4905 43.4819 11.625 43.4819 11.7955C43.4819 12.0284 43.5681 12.2045 43.7404 12.3239C43.9147 12.4413 44.1353 12.5 44.4023 12.5ZM49.4215 8.63636V9.20455H47.1602V8.63636H49.4215ZM47.8192 7.59091H48.4897V11.75C48.4897 11.9394 48.5172 12.0814 48.5721 12.1761C48.6289 12.2689 48.7009 12.3314 48.788 12.3636C48.877 12.3939 48.9708 12.4091 49.0692 12.4091C49.1431 12.4091 49.2037 12.4053 49.2511 12.3977C49.2984 12.3883 49.3363 12.3807 49.3647 12.375L49.5011 12.9773C49.4556 12.9943 49.3922 13.0114 49.3107 13.0284C49.2293 13.0473 49.1261 13.0568 49.0011 13.0568C48.8117 13.0568 48.6261 13.0161 48.4442 12.9347C48.2643 12.8532 48.1147 12.7292 47.9954 12.5625C47.878 12.3958 47.8192 12.1856 47.8192 11.9318V7.59091ZM50.43 13V8.63636H51.1005V13H50.43ZM50.771 7.90909C50.6403 7.90909 50.5276 7.86458 50.4329 7.77557C50.3401 7.68655 50.2937 7.57955 50.2937 7.45455C50.2937 7.32955 50.3401 7.22254 50.4329 7.13352C50.5276 7.04451 50.6403 7 50.771 7C50.9016 7 51.0134 7.04451 51.1062 7.13352C51.2009 7.22254 51.2482 7.32955 51.2482 7.45455C51.2482 7.57955 51.2009 7.68655 51.1062 7.77557C51.0134 7.86458 50.9016 7.90909 50.771 7.90909ZM54.1012 13.0909C53.7073 13.0909 53.3616 12.9972 53.0643 12.8097C52.7688 12.6222 52.5378 12.3598 52.3711 12.0227C52.2063 11.6856 52.1239 11.2917 52.1239 10.8409C52.1239 10.3864 52.2063 9.98958 52.3711 9.65057C52.5378 9.31155 52.7688 9.0483 53.0643 8.8608C53.3616 8.6733 53.7073 8.57955 54.1012 8.57955C54.4951 8.57955 54.8398 8.6733 55.1353 8.8608C55.4326 9.0483 55.6637 9.31155 55.8285 9.65057C55.9951 9.98958 56.0785 10.3864 56.0785 10.8409C56.0785 11.2917 55.9951 11.6856 55.8285 12.0227C55.6637 12.3598 55.4326 12.6222 55.1353 12.8097C54.8398 12.9972 54.4951 13.0909 54.1012 13.0909ZM54.1012 12.4886C54.4004 12.4886 54.6467 12.4119 54.8398 12.2585C55.033 12.1051 55.176 11.9034 55.2688 11.6534C55.3616 11.4034 55.408 11.1326 55.408 10.8409C55.408 10.5492 55.3616 10.2775 55.2688 10.0256C55.176 9.77367 55.033 9.57008 54.8398 9.41477C54.6467 9.25947 54.4004 9.18182 54.1012 9.18182C53.802 9.18182 53.5558 9.25947 53.3626 9.41477C53.1694 9.57008 53.0264 9.77367 52.9336 10.0256C52.8408 10.2775 52.7944 10.5492 52.7944 10.8409C52.7944 11.1326 52.8408 11.4034 52.9336 11.6534C53.0264 11.9034 53.1694 12.1051 53.3626 12.2585C53.5558 12.4119 53.802 12.4886 54.1012 12.4886ZM57.7724 10.375V13H57.1019V8.63636H57.7496V9.31818H57.8065C57.9087 9.09659 58.064 8.91856 58.2724 8.78409C58.4807 8.64773 58.7496 8.57955 59.0792 8.57955C59.3746 8.57955 59.6332 8.64015 59.8548 8.76136C60.0763 8.88068 60.2487 9.0625 60.3718 9.30682C60.4949 9.54924 60.5565 9.85606 60.5565 10.2273V13H59.886V10.2727C59.886 9.92992 59.797 9.66288 59.619 9.47159C59.4409 9.27841 59.1966 9.18182 58.886 9.18182C58.672 9.18182 58.4807 9.22822 58.3121 9.32102C58.1455 9.41383 58.0138 9.54924 57.9173 9.72727C57.8207 9.9053 57.7724 10.1212 57.7724 10.375Z" fill="black"/>
  <path d="M89.7045 10V4.18182H91.6705C92.1269 4.18182 92.5 4.2642 92.7898 4.42898C93.0814 4.59186 93.2973 4.8125 93.4375 5.09091C93.5777 5.36932 93.6477 5.67992 93.6477 6.02273C93.6477 6.36553 93.5777 6.67708 93.4375 6.95739C93.2992 7.23769 93.0852 7.46117 92.7955 7.62784C92.5057 7.79261 92.1345 7.875 91.6818 7.875H90.2727V7.25H91.6591C91.9716 7.25 92.2225 7.19602 92.4119 7.08807C92.6013 6.98011 92.7386 6.83428 92.8239 6.65057C92.911 6.46496 92.9545 6.25568 92.9545 6.02273C92.9545 5.78977 92.911 5.58144 92.8239 5.39773C92.7386 5.21402 92.6004 5.07008 92.4091 4.96591C92.2178 4.85985 91.964 4.80682 91.6477 4.80682H90.4091V10H89.7045ZM96.4176 10.0909C96.0237 10.0909 95.678 9.99716 95.3807 9.80966C95.0852 9.62216 94.8542 9.35985 94.6875 9.02273C94.5227 8.68561 94.4403 8.29167 94.4403 7.84091C94.4403 7.38636 94.5227 6.98958 94.6875 6.65057C94.8542 6.31155 95.0852 6.0483 95.3807 5.8608C95.678 5.6733 96.0237 5.57955 96.4176 5.57955C96.8116 5.57955 97.1563 5.6733 97.4517 5.8608C97.7491 6.0483 97.9801 6.31155 98.1449 6.65057C98.3116 6.98958 98.3949 7.38636 98.3949 7.84091C98.3949 8.29167 98.3116 8.68561 98.1449 9.02273C97.9801 9.35985 97.7491 9.62216 97.4517 9.80966C97.1563 9.99716 96.8116 10.0909 96.4176 10.0909ZM96.4176 9.48864C96.7169 9.48864 96.9631 9.41193 97.1562 9.25852C97.3494 9.10511 97.4924 8.90341 97.5852 8.65341C97.678 8.40341 97.7244 8.13258 97.7244 7.84091C97.7244 7.54924 97.678 7.27746 97.5852 7.02557C97.4924 6.77367 97.3494 6.57008 97.1562 6.41477C96.9631 6.25947 96.7169 6.18182 96.4176 6.18182C96.1184 6.18182 95.8722 6.25947 95.679 6.41477C95.4858 6.57008 95.3428 6.77367 95.25 7.02557C95.1572 7.27746 95.1108 7.54924 95.1108 7.84091C95.1108 8.13258 95.1572 8.40341 95.25 8.65341C95.3428 8.90341 95.4858 9.10511 95.679 9.25852C95.8722 9.41193 96.1184 9.48864 96.4176 9.48864ZM102.509 6.61364L101.907 6.78409C101.869 6.68371 101.813 6.58617 101.739 6.49148C101.667 6.39489 101.569 6.31534 101.444 6.25284C101.319 6.19034 101.159 6.15909 100.964 6.15909C100.697 6.15909 100.474 6.22064 100.296 6.34375C100.12 6.46496 100.032 6.61932 100.032 6.80682C100.032 6.97348 100.093 7.10511 100.214 7.2017C100.335 7.2983 100.524 7.37879 100.782 7.44318L101.43 7.60227C101.82 7.69697 102.111 7.84186 102.302 8.03693C102.493 8.23011 102.589 8.47917 102.589 8.78409C102.589 9.03409 102.517 9.25758 102.373 9.45455C102.231 9.65152 102.032 9.80682 101.776 9.92045C101.521 10.0341 101.223 10.0909 100.884 10.0909C100.439 10.0909 100.071 9.99432 99.7791 9.80114C99.4875 9.60795 99.3028 9.32576 99.2251 8.95455L99.8615 8.79545C99.9221 9.0303 100.037 9.20644 100.205 9.32386C100.376 9.44129 100.598 9.5 100.873 9.5C101.185 9.5 101.433 9.43371 101.617 9.30114C101.803 9.16667 101.896 9.00568 101.896 8.81818C101.896 8.66667 101.843 8.53977 101.737 8.4375C101.63 8.33333 101.468 8.25568 101.248 8.20455L100.521 8.03409C100.121 7.93939 99.8274 7.79261 99.6399 7.59375C99.4543 7.39299 99.3615 7.14205 99.3615 6.84091C99.3615 6.5947 99.4306 6.37689 99.5689 6.1875C99.709 5.99811 99.8994 5.84943 100.14 5.74148C100.382 5.63352 100.657 5.57955 100.964 5.57955C101.396 5.57955 101.735 5.67424 101.981 5.86364C102.229 6.05303 102.405 6.30303 102.509 6.61364ZM105.496 5.63636V6.20455H103.234V5.63636H105.496ZM103.893 4.59091H104.564V8.75C104.564 8.93939 104.591 9.08144 104.646 9.17614C104.703 9.26894 104.775 9.33144 104.862 9.36364C104.951 9.39394 105.045 9.40909 105.143 9.40909C105.217 9.40909 105.278 9.4053 105.325 9.39773C105.373 9.38826 105.411 9.38068 105.439 9.375L105.575 9.97727C105.53 9.99432 105.466 10.0114 105.385 10.0284C105.304 10.0473 105.2 10.0568 105.075 10.0568C104.886 10.0568 104.7 10.0161 104.518 9.93466C104.339 9.85322 104.189 9.72917 104.07 9.5625C103.952 9.39583 103.893 9.18561 103.893 8.93182V4.59091ZM109.084 10H108.345L110.482 4.18182H111.209L113.345 10H112.607L110.868 5.10227H110.822L109.084 10ZM109.357 7.72727H112.334V8.35227H109.357V7.72727ZM114.831 7.375V10H114.161V5.63636H114.808V6.31818H114.865C114.967 6.09659 115.123 5.91856 115.331 5.78409C115.539 5.64773 115.808 5.57955 116.138 5.57955C116.433 5.57955 116.692 5.64015 116.913 5.76136C117.135 5.88068 117.307 6.0625 117.43 6.30682C117.554 6.54924 117.615 6.85606 117.615 7.22727V10H116.945V7.27273C116.945 6.92992 116.856 6.66288 116.678 6.47159C116.5 6.27841 116.255 6.18182 115.945 6.18182C115.731 6.18182 115.539 6.22822 115.371 6.32102C115.204 6.41383 115.072 6.54924 114.976 6.72727C114.879 6.9053 114.831 7.12121 114.831 7.375ZM120.124 10.1023C119.848 10.1023 119.597 10.0502 119.371 9.94602C119.146 9.83996 118.967 9.6875 118.835 9.48864C118.702 9.28788 118.636 9.04545 118.636 8.76136C118.636 8.51136 118.685 8.30871 118.783 8.15341C118.882 7.99621 119.013 7.87311 119.178 7.78409C119.343 7.69508 119.525 7.62879 119.724 7.58523C119.924 7.53977 120.126 7.50379 120.329 7.47727C120.594 7.44318 120.809 7.41761 120.974 7.40057C121.14 7.38163 121.262 7.35038 121.337 7.30682C121.415 7.26326 121.454 7.1875 121.454 7.07955V7.05682C121.454 6.77652 121.377 6.55871 121.224 6.40341C121.072 6.24811 120.842 6.17045 120.533 6.17045C120.213 6.17045 119.962 6.24053 119.781 6.38068C119.599 6.52083 119.471 6.67045 119.397 6.82955L118.761 6.60227C118.874 6.33712 119.026 6.13068 119.215 5.98295C119.406 5.83333 119.615 5.72917 119.84 5.67045C120.067 5.60985 120.291 5.57955 120.511 5.57955C120.651 5.57955 120.812 5.59659 120.994 5.63068C121.177 5.66288 121.354 5.73011 121.525 5.83239C121.697 5.93466 121.84 6.08902 121.954 6.29545C122.067 6.50189 122.124 6.77841 122.124 7.125V10H121.454V9.40909H121.42C121.374 9.50379 121.299 9.60511 121.192 9.71307C121.086 9.82102 120.945 9.91288 120.769 9.98864C120.593 10.0644 120.378 10.1023 120.124 10.1023ZM120.227 9.5C120.492 9.5 120.715 9.44792 120.897 9.34375C121.081 9.23958 121.219 9.10511 121.312 8.94034C121.406 8.77557 121.454 8.60227 121.454 8.42045V7.80682C121.425 7.84091 121.363 7.87216 121.266 7.90057C121.172 7.92708 121.062 7.95076 120.937 7.97159C120.814 7.99053 120.693 8.00758 120.576 8.02273C120.46 8.03598 120.367 8.04735 120.295 8.05682C120.121 8.07955 119.958 8.11648 119.806 8.16761C119.656 8.21686 119.535 8.29167 119.442 8.39205C119.352 8.49053 119.306 8.625 119.306 8.79545C119.306 9.02841 119.392 9.20455 119.565 9.32386C119.739 9.44129 119.96 9.5 120.227 9.5ZM124.018 4.18182V10H123.348V4.18182H124.018ZM125.678 11.6364C125.565 11.6364 125.463 11.6269 125.374 11.608C125.285 11.5909 125.224 11.5739 125.19 11.5568L125.36 10.9659C125.523 11.0076 125.667 11.0227 125.792 11.0114C125.917 11 126.028 10.9441 126.124 10.8438C126.223 10.7453 126.313 10.5852 126.394 10.3636L126.519 10.0227L124.906 5.63636H125.633L126.837 9.11364H126.883L128.087 5.63636H128.815L126.962 10.6364C126.879 10.8617 126.776 11.0483 126.653 11.196C126.53 11.3456 126.387 11.4564 126.224 11.5284C126.063 11.6004 125.881 11.6364 125.678 11.6364ZM132.79 6.61364L132.188 6.78409C132.15 6.68371 132.094 6.58617 132.021 6.49148C131.949 6.39489 131.85 6.31534 131.725 6.25284C131.6 6.19034 131.44 6.15909 131.245 6.15909C130.978 6.15909 130.755 6.22064 130.577 6.34375C130.401 6.46496 130.313 6.61932 130.313 6.80682C130.313 6.97348 130.374 7.10511 130.495 7.2017C130.616 7.2983 130.806 7.37879 131.063 7.44318L131.711 7.60227C132.101 7.69697 132.392 7.84186 132.583 8.03693C132.774 8.23011 132.87 8.47917 132.87 8.78409C132.87 9.03409 132.798 9.25758 132.654 9.45455C132.512 9.65152 132.313 9.80682 132.058 9.92045C131.802 10.0341 131.504 10.0909 131.165 10.0909C130.72 10.0909 130.352 9.99432 130.06 9.80114C129.769 9.60795 129.584 9.32576 129.506 8.95455L130.143 8.79545C130.203 9.0303 130.318 9.20644 130.487 9.32386C130.657 9.44129 130.879 9.5 131.154 9.5C131.467 9.5 131.715 9.43371 131.898 9.30114C132.084 9.16667 132.177 9.00568 132.177 8.81818C132.177 8.66667 132.124 8.53977 132.018 8.4375C131.912 8.33333 131.749 8.25568 131.529 8.20455L130.802 8.03409C130.402 7.93939 130.109 7.79261 129.921 7.59375C129.736 7.39299 129.643 7.14205 129.643 6.84091C129.643 6.5947 129.712 6.37689 129.85 6.1875C129.99 5.99811 130.181 5.84943 130.421 5.74148C130.664 5.63352 130.938 5.57955 131.245 5.57955C131.677 5.57955 132.016 5.67424 132.262 5.86364C132.51 6.05303 132.686 6.30303 132.79 6.61364ZM133.879 10V5.63636H134.55V10H133.879ZM134.22 4.90909C134.089 4.90909 133.977 4.86458 133.882 4.77557C133.789 4.68655 133.743 4.57955 133.743 4.45455C133.743 4.32955 133.789 4.22254 133.882 4.13352C133.977 4.04451 134.089 4 134.22 4C134.351 4 134.463 4.04451 134.555 4.13352C134.65 4.22254 134.697 4.32955 134.697 4.45455C134.697 4.57955 134.65 4.68655 134.555 4.77557C134.463 4.86458 134.351 4.90909 134.22 4.90909ZM138.869 6.61364L138.266 6.78409C138.228 6.68371 138.173 6.58617 138.099 6.49148C138.027 6.39489 137.928 6.31534 137.803 6.25284C137.678 6.19034 137.518 6.15909 137.323 6.15909C137.056 6.15909 136.834 6.22064 136.656 6.34375C136.479 6.46496 136.391 6.61932 136.391 6.80682C136.391 6.97348 136.452 7.10511 136.573 7.2017C136.694 7.2983 136.884 7.37879 137.141 7.44318L137.789 7.60227C138.179 7.69697 138.47 7.84186 138.661 8.03693C138.853 8.23011 138.948 8.47917 138.948 8.78409C138.948 9.03409 138.876 9.25758 138.732 9.45455C138.59 9.65152 138.391 9.80682 138.136 9.92045C137.88 10.0341 137.583 10.0909 137.244 10.0909C136.799 10.0909 136.43 9.99432 136.138 9.80114C135.847 9.60795 135.662 9.32576 135.585 8.95455L136.221 8.79545C136.281 9.0303 136.396 9.20644 136.565 9.32386C136.735 9.44129 136.958 9.5 137.232 9.5C137.545 9.5 137.793 9.43371 137.977 9.30114C138.162 9.16667 138.255 9.00568 138.255 8.81818C138.255 8.66667 138.202 8.53977 138.096 8.4375C137.99 8.33333 137.827 8.25568 137.607 8.20455L136.88 8.03409C136.48 7.93939 136.187 7.79261 135.999 7.59375C135.814 7.39299 135.721 7.14205 135.721 6.84091C135.721 6.5947 135.79 6.37689 135.928 6.1875C136.068 5.99811 136.259 5.84943 136.499 5.74148C136.742 5.63352 137.016 5.57955 137.323 5.57955C137.755 5.57955 138.094 5.67424 138.34 5.86364C138.588 6.05303 138.764 6.30303 138.869 6.61364Z" fill="black"/>
  </g>
  <defs>
  <clipPath id="clip0_1_2">
  <rect width="140" height="66" fill="white"/>
  </clipPath>
  </defs>
  </svg>
  