<svg width="14" height="41" viewBox="0 0 14 41" fill="none" xmlns="http://www.w3.org/2000/svg">
<path d="M1.50971 37.9019C1.45555 38.1727 1.63116 38.4361 1.90194 38.4903L6.31455 39.3728C6.58533 39.427 6.84875 39.2514 6.9029 38.9806C6.95706 38.7098 6.78145 38.4464 6.51067 38.3922L2.58835 37.6078L3.37281 33.6854C3.42697 33.4147 3.25136 33.1513 2.98058 33.0971C2.7098 33.0429 2.44639 33.2185 2.39223 33.4893L1.50971 37.9019ZM2 1L1.7871 1.45241C10.0549 5.34312 12.6097 12.6115 11.8155 19.8202C11.0171 27.0672 6.83458 34.176 1.72265 37.584L2 38L2.27735 38.416C7.66542 34.824 11.9829 27.4328 12.8095 19.9298C13.6403 12.3885 10.9451 4.65688 2.2129 0.547591L2 1Z" fill="black"/>
</svg>
