<svg width="140" height="60" viewBox="0 0 140 60" fill="none" xmlns="http://www.w3.org/2000/svg">
<g clip-path="url(#clip0_5_67)">
<line x1="6.63003" y1="17.6637" x2="16.63" y2="6.66366" stroke="#8F8F8F"/>
<line x1="26.4335" y1="17.759" x2="16.6206" y2="6.32564" stroke="#8F8F8F"/>
<line x1="16.5078" y1="36.4383" x2="27.6229" y2="23.6717" stroke="#8F8F8F"/>
<line x1="5.6014" y1="53.4287" x2="16.6507" y2="42.6422" stroke="#8F8F8F"/>
<line x1="26.6189" y1="53.4688" x2="16.6278" y2="42.3339" stroke="#8F8F8F"/>
<line x1="46.287" y1="52.5892" x2="37.618" y2="42.3226" stroke="#8F8F8F"/>
<line x1="37.6809" y1="36.6079" x2="27.6014" y2="23.3019" stroke="#8F8F8F"/>
<rect x="20.5" y="53.5" width="12" height="6" rx="1.5" stroke="black"/>
<rect x="0.5" y="17.5" width="12" height="6" rx="1.5" stroke="black"/>
<rect x="11.5" y="0.5" width="10" height="6" rx="1.5" stroke="black"/>
<rect x="20.5" y="17.5" width="12" height="6" rx="1.5" stroke="black"/>
<rect x="11.5" y="36.5" width="10" height="6" rx="1.5" stroke="black"/>
<rect x="0.5" y="53.5" width="12" height="6" rx="1.5" stroke="#A60000"/>
<rect x="32.5" y="36.5" width="10" height="6" rx="1.5" stroke="#A60000"/>
<rect x="41.5" y="52.5" width="11" height="7" rx="1.5" stroke="#A60000"/>
<line x1="102.63" y1="17.6637" x2="112.63" y2="6.66366" stroke="#8F8F8F"/>
<line x1="123.646" y1="17.3536" x2="112.646" y2="6.35355" stroke="#8F8F8F"/>
<line x1="112.806" y1="36.4435" x2="123.618" y2="23.6768" stroke="#8F8F8F"/>
<line x1="123.646" y1="53.3536" x2="112.646" y2="42.3536" stroke="#8F8F8F"/>
<line x1="133.616" y1="36.3201" x2="123.616" y2="24.3201" stroke="#8F8F8F"/>
<rect x="118.5" y="53.5" width="10" height="6" rx="1.5" stroke="black"/>
<rect x="97.5" y="17.5" width="10" height="6" rx="1.5" stroke="black"/>
<rect x="106.5" y="0.5" width="12" height="6" rx="1.5" stroke="black"/>
<rect x="118.5" y="17.5" width="10" height="6" rx="1.5" stroke="black"/>
<rect x="107.5" y="36.5" width="12" height="6" rx="1.5" stroke="black"/>
<rect x="127.5" y="36.5" width="12" height="6" rx="1.5" stroke="#028B00"/>
<path d="M54.7095 30.731C54.4847 30.8914 54.4326 31.2037 54.593 31.4285C54.7535 31.6532 55.0657 31.7053 55.2905 31.5449L54.7095 30.731ZM89.4945 28.9513C89.5353 28.6782 89.3469 28.4237 89.0738 28.383L84.6231 27.7187C84.35 27.6779 84.0955 27.8663 84.0548 28.1394C84.014 28.4125 84.2024 28.6669 84.4755 28.7077L88.4317 29.2982L87.8412 33.2544C87.8004 33.5275 87.9888 33.7819 88.2619 33.8227C88.535 33.8635 88.7894 33.6751 88.8302 33.402L89.4945 28.9513ZM55 31.138L55.2905 31.5449C58.6619 29.1382 61.5768 28.4174 64.2552 28.5073C66.9588 28.5982 69.4575 29.5135 72.0254 30.4658C74.5677 31.4087 77.1838 32.3905 80.009 32.4915C82.8626 32.5934 85.8941 31.7987 89.2975 29.2794L89 28.8775L88.7025 28.4756C85.4653 30.872 82.6531 31.5853 80.0447 31.4921C77.408 31.3979 74.944 30.4817 72.3731 29.5282C69.8276 28.5842 67.1799 27.605 64.2888 27.5079C61.3724 27.4099 58.2443 28.2077 54.7095 30.731L55 31.138Z" fill="#434343"/>
<path d="M57.8807 21.5263L57.3033 21.6286C57.2791 21.5547 57.2408 21.4844 57.1882 21.4176C57.1371 21.3509 57.0675 21.2962 56.9794 21.2536C56.8913 21.2109 56.7813 21.1896 56.6491 21.1896C56.4688 21.1896 56.3182 21.2301 56.1974 21.3111C56.0767 21.3906 56.0163 21.4936 56.0163 21.62C56.0163 21.7294 56.0568 21.8175 56.1378 21.8842C56.2188 21.951 56.3494 22.0057 56.5298 22.0483L57.0497 22.1676C57.3509 22.2372 57.5753 22.3445 57.723 22.4893C57.8707 22.6342 57.9446 22.8224 57.9446 23.054C57.9446 23.25 57.8878 23.4247 57.7741 23.5781C57.6619 23.7301 57.505 23.8494 57.3033 23.9361C57.103 24.0227 56.8707 24.0661 56.6065 24.0661C56.2401 24.0661 55.9411 23.9879 55.7095 23.8317C55.478 23.674 55.3359 23.4503 55.2834 23.1605L55.8991 23.0668C55.9375 23.2273 56.0163 23.3487 56.1357 23.4311C56.255 23.5121 56.4105 23.5526 56.6023 23.5526C56.8111 23.5526 56.978 23.5092 57.103 23.4226C57.228 23.3345 57.2905 23.2273 57.2905 23.1009C57.2905 22.9986 57.2521 22.9126 57.1754 22.843C57.1001 22.7734 56.9844 22.7209 56.8281 22.6854L56.2741 22.5639C55.9688 22.4943 55.7429 22.3835 55.5966 22.2315C55.4517 22.0795 55.3793 21.8871 55.3793 21.6541C55.3793 21.4609 55.4332 21.2919 55.5412 21.147C55.6491 21.0021 55.7983 20.8892 55.9886 20.8082C56.179 20.7259 56.397 20.6847 56.6428 20.6847C56.9964 20.6847 57.2749 20.7614 57.478 20.9148C57.6811 21.0668 57.8153 21.2706 57.8807 21.5263ZM58.6451 24V20.7273H59.2821V24H58.6451ZM58.9668 20.2223C58.856 20.2223 58.7608 20.1854 58.6813 20.1115C58.6032 20.0362 58.5641 19.9467 58.5641 19.843C58.5641 19.7379 58.6032 19.6484 58.6813 19.5746C58.7608 19.4993 58.856 19.4616 58.9668 19.4616C59.0776 19.4616 59.1721 19.4993 59.2502 19.5746C59.3297 19.6484 59.3695 19.7379 59.3695 19.843C59.3695 19.9467 59.3297 20.0362 59.2502 20.1115C59.1721 20.1854 59.0776 20.2223 58.9668 20.2223ZM60.7763 22.0568V24H60.1392V20.7273H60.7507V21.2599H60.7912C60.8665 21.0866 60.9844 20.9474 61.1449 20.8423C61.3068 20.7372 61.5107 20.6847 61.7564 20.6847C61.9794 20.6847 62.1747 20.7315 62.3423 20.8253C62.5099 20.9176 62.6399 21.0554 62.7322 21.2386C62.8246 21.4219 62.8707 21.6484 62.8707 21.9183V24H62.2337V21.995C62.2337 21.7578 62.1719 21.5724 62.0483 21.4389C61.9247 21.304 61.755 21.2365 61.5391 21.2365C61.3913 21.2365 61.2599 21.2685 61.1449 21.3324C61.0313 21.3963 60.9411 21.4901 60.8743 21.6136C60.8089 21.7358 60.7763 21.8835 60.7763 22.0568ZM65.0973 25.2955C64.8374 25.2955 64.6136 25.2614 64.4261 25.1932C64.2401 25.125 64.0881 25.0348 63.9702 24.9226C63.8523 24.8104 63.7642 24.6875 63.706 24.554L64.2536 24.3281C64.2919 24.3906 64.343 24.4567 64.407 24.5263C64.4723 24.5973 64.5604 24.6577 64.6712 24.7074C64.7834 24.7571 64.9276 24.782 65.1037 24.782C65.3452 24.782 65.5447 24.723 65.7024 24.6051C65.8601 24.4886 65.9389 24.3026 65.9389 24.0469V23.4034H65.8984C65.8601 23.473 65.8047 23.5504 65.7322 23.6357C65.6612 23.7209 65.5632 23.7947 65.4382 23.8572C65.3132 23.9197 65.1506 23.951 64.9503 23.951C64.6918 23.951 64.4588 23.8906 64.2514 23.7699C64.0455 23.6477 63.8821 23.468 63.7614 23.2308C63.642 22.9922 63.5824 22.6989 63.5824 22.3509C63.5824 22.0028 63.6413 21.7045 63.7592 21.456C63.8786 21.2074 64.0419 21.017 64.2493 20.8849C64.4567 20.7514 64.6918 20.6847 64.9545 20.6847C65.1577 20.6847 65.3217 20.7188 65.4467 20.7869C65.5717 20.8537 65.669 20.9318 65.7386 21.0213C65.8097 21.1108 65.8643 21.1896 65.9027 21.2578H65.9496V20.7273H66.5739V24.0724C66.5739 24.3537 66.5085 24.5845 66.3778 24.7649C66.2472 24.9453 66.0703 25.0788 65.8473 25.1655C65.6257 25.2521 65.3757 25.2955 65.0973 25.2955ZM65.0909 23.4226C65.2741 23.4226 65.429 23.38 65.5554 23.2947C65.6832 23.2081 65.7798 23.0845 65.8452 22.924C65.9119 22.7621 65.9453 22.5682 65.9453 22.3423C65.9453 22.1222 65.9126 21.9283 65.8473 21.7607C65.782 21.593 65.6861 21.4624 65.5597 21.3686C65.4332 21.2734 65.277 21.2259 65.0909 21.2259C64.8991 21.2259 64.7393 21.2756 64.6115 21.375C64.4837 21.473 64.3871 21.6065 64.3217 21.7756C64.2578 21.9446 64.2259 22.1335 64.2259 22.3423C64.2259 22.5568 64.2585 22.745 64.3239 22.907C64.3892 23.0689 64.4858 23.1953 64.6136 23.2862C64.7429 23.3771 64.902 23.4226 65.0909 23.4226ZM68.0653 19.6364V24H67.4283V19.6364H68.0653ZM70.3329 24.0661C70.0105 24.0661 69.7328 23.9972 69.4998 23.8594C69.2683 23.7202 69.0893 23.5249 68.9629 23.2734C68.8379 23.0206 68.7754 22.7244 68.7754 22.3849C68.7754 22.0497 68.8379 21.7543 68.9629 21.4986C69.0893 21.2429 69.2654 21.0433 69.4913 20.8999C69.7186 20.7564 69.9842 20.6847 70.2882 20.6847C70.4728 20.6847 70.6518 20.7152 70.8251 20.7763C70.9984 20.8374 71.1539 20.9332 71.2917 21.0639C71.4295 21.1946 71.5382 21.3643 71.6177 21.5732C71.6973 21.7805 71.737 22.0327 71.737 22.3295V22.5554H69.1355V22.0781H71.1127C71.1127 21.9105 71.0787 21.7621 71.0105 21.6328C70.9423 21.5021 70.8464 21.3991 70.7228 21.3239C70.6007 21.2486 70.4572 21.2109 70.2924 21.2109C70.1135 21.2109 69.9572 21.255 69.8237 21.343C69.6916 21.4297 69.5893 21.5433 69.5169 21.6839C69.4458 21.8232 69.4103 21.9744 69.4103 22.1378V22.5107C69.4103 22.7294 69.4487 22.9155 69.5254 23.0689C69.6035 23.2223 69.7122 23.3395 69.8514 23.4205C69.9906 23.5 70.1532 23.5398 70.3393 23.5398C70.46 23.5398 70.5701 23.5227 70.6696 23.4886C70.769 23.4531 70.8549 23.4006 70.9274 23.331C70.9998 23.2614 71.0552 23.1754 71.0936 23.0732L71.6966 23.1818C71.6483 23.3594 71.5616 23.5149 71.4366 23.6484C71.313 23.7805 71.1575 23.8835 70.97 23.9574C70.7839 24.0298 70.5716 24.0661 70.3329 24.0661ZM74.0318 25.2273V20.7273H74.6539V21.2578H74.7072C74.7441 21.1896 74.7974 21.1108 74.867 21.0213C74.9366 20.9318 75.0332 20.8537 75.1568 20.7869C75.2804 20.7188 75.4437 20.6847 75.6468 20.6847C75.911 20.6847 76.1468 20.7514 76.3542 20.8849C76.5616 21.0185 76.7243 21.2109 76.8422 21.4624C76.9615 21.7138 77.0211 22.0163 77.0211 22.37C77.0211 22.7237 76.9622 23.027 76.8443 23.2798C76.7264 23.5312 76.5645 23.7251 76.3585 23.8615C76.1525 23.9964 75.9174 24.0639 75.6532 24.0639C75.4544 24.0639 75.2917 24.0305 75.1653 23.9638C75.0403 23.897 74.9423 23.8189 74.8713 23.7294C74.8002 23.6399 74.7456 23.5604 74.7072 23.4908H74.6689V25.2273H74.0318ZM74.6561 22.3636C74.6561 22.5937 74.6895 22.7955 74.7562 22.9688C74.823 23.142 74.9196 23.2777 75.046 23.3757C75.1724 23.4723 75.3272 23.5206 75.5105 23.5206C75.7008 23.5206 75.8599 23.4702 75.9877 23.3693C76.1156 23.267 76.2122 23.1286 76.2775 22.9538C76.3443 22.7791 76.3777 22.5824 76.3777 22.3636C76.3777 22.1477 76.345 21.9538 76.2797 21.782C76.2157 21.6101 76.1191 21.4744 75.9899 21.375C75.862 21.2756 75.7022 21.2259 75.5105 21.2259C75.3258 21.2259 75.1696 21.2734 75.0417 21.3686C74.9153 21.4638 74.8194 21.5966 74.7541 21.767C74.6887 21.9375 74.6561 22.1364 74.6561 22.3636ZM78.6873 24.0724C78.4799 24.0724 78.2924 24.0341 78.1248 23.9574C77.9572 23.8793 77.8244 23.7663 77.7264 23.6186C77.6298 23.4709 77.5815 23.2898 77.5815 23.0753C77.5815 22.8906 77.617 22.7386 77.688 22.6193C77.7591 22.5 77.8549 22.4055 77.9757 22.3359C78.0964 22.2663 78.2314 22.2138 78.3805 22.1783C78.5297 22.1428 78.6816 22.1158 78.8365 22.0973C79.0325 22.0746 79.1916 22.0561 79.3137 22.0419C79.4359 22.0263 79.5247 22.0014 79.5801 21.9673C79.6355 21.9332 79.6632 21.8778 79.6632 21.8011V21.7862C79.6632 21.6001 79.6106 21.456 79.5055 21.3537C79.4018 21.2514 79.247 21.2003 79.041 21.2003C78.8265 21.2003 78.6575 21.2479 78.5339 21.343C78.4118 21.4368 78.3272 21.5412 78.2804 21.6562L77.6816 21.5199C77.7527 21.321 77.8564 21.1605 77.9927 21.0384C78.1305 20.9148 78.2889 20.8253 78.4679 20.7699C78.6468 20.7131 78.835 20.6847 79.0325 20.6847C79.1632 20.6847 79.3017 20.7003 79.448 20.7315C79.5957 20.7614 79.7335 20.8168 79.8613 20.8977C79.9906 20.9787 80.0964 21.0945 80.1788 21.245C80.2612 21.3942 80.3024 21.5881 80.3024 21.8267V24H79.6802V23.5526H79.6547C79.6135 23.6349 79.5517 23.7159 79.4693 23.7955C79.3869 23.875 79.2811 23.9411 79.1518 23.9936C79.0225 24.0462 78.8677 24.0724 78.6873 24.0724ZM78.8258 23.5611C79.002 23.5611 79.1525 23.5263 79.2775 23.4567C79.4039 23.3871 79.4998 23.2962 79.5652 23.1839C79.6319 23.0703 79.6653 22.9489 79.6653 22.8196V22.3977C79.6426 22.4205 79.5985 22.4418 79.5332 22.4616C79.4693 22.4801 79.3961 22.4964 79.3137 22.5107C79.2314 22.5234 79.1511 22.5355 79.073 22.5469C78.9949 22.5568 78.9295 22.5653 78.877 22.5724C78.7534 22.5881 78.6404 22.6143 78.5382 22.6513C78.4373 22.6882 78.3564 22.7415 78.2953 22.8111C78.2356 22.8793 78.2058 22.9702 78.2058 23.0838C78.2058 23.2415 78.264 23.3608 78.3805 23.4418C78.497 23.5213 78.6454 23.5611 78.8258 23.5611ZM83.6033 21.5263L83.0259 21.6286C83.0018 21.5547 82.9634 21.4844 82.9109 21.4176C82.8597 21.3509 82.7901 21.2962 82.7021 21.2536C82.614 21.2109 82.5039 21.1896 82.3718 21.1896C82.1914 21.1896 82.0408 21.2301 81.9201 21.3111C81.7994 21.3906 81.739 21.4936 81.739 21.62C81.739 21.7294 81.7795 21.8175 81.8604 21.8842C81.9414 21.951 82.0721 22.0057 82.2525 22.0483L82.7724 22.1676C83.0735 22.2372 83.2979 22.3445 83.4457 22.4893C83.5934 22.6342 83.6673 22.8224 83.6673 23.054C83.6673 23.25 83.6104 23.4247 83.4968 23.5781C83.3846 23.7301 83.2276 23.8494 83.0259 23.9361C82.8256 24.0227 82.5934 24.0661 82.3292 24.0661C81.9627 24.0661 81.6637 23.9879 81.4322 23.8317C81.2006 23.674 81.0586 23.4503 81.006 23.1605L81.6218 23.0668C81.6602 23.2273 81.739 23.3487 81.8583 23.4311C81.9776 23.5121 82.1332 23.5526 82.3249 23.5526C82.5337 23.5526 82.7006 23.5092 82.8256 23.4226C82.9506 23.3345 83.0131 23.2273 83.0131 23.1009C83.0131 22.9986 82.9748 22.9126 82.8981 22.843C82.8228 22.7734 82.707 22.7209 82.5508 22.6854L81.9968 22.5639C81.6914 22.4943 81.4656 22.3835 81.3192 22.2315C81.1744 22.0795 81.1019 21.8871 81.1019 21.6541C81.1019 21.4609 81.1559 21.2919 81.2638 21.147C81.3718 21.0021 81.521 20.8892 81.7113 20.8082C81.9016 20.7259 82.1197 20.6847 82.3654 20.6847C82.7191 20.6847 82.9975 20.7614 83.2006 20.9148C83.4038 21.0668 83.538 21.2706 83.6033 21.5263ZM86.8201 21.5263L86.2427 21.6286C86.2186 21.5547 86.1802 21.4844 86.1277 21.4176C86.0765 21.3509 86.0069 21.2962 85.9189 21.2536C85.8308 21.2109 85.7207 21.1896 85.5886 21.1896C85.4082 21.1896 85.2576 21.2301 85.1369 21.3111C85.0162 21.3906 84.9558 21.4936 84.9558 21.62C84.9558 21.7294 84.9963 21.8175 85.0772 21.8842C85.1582 21.951 85.2889 22.0057 85.4693 22.0483L85.9892 22.1676C86.2903 22.2372 86.5147 22.3445 86.6625 22.4893C86.8102 22.6342 86.8841 22.8224 86.8841 23.054C86.8841 23.25 86.8272 23.4247 86.7136 23.5781C86.6014 23.7301 86.4444 23.8494 86.2427 23.9361C86.0424 24.0227 85.8102 24.0661 85.546 24.0661C85.1795 24.0661 84.8805 23.9879 84.649 23.8317C84.4174 23.674 84.2754 23.4503 84.2228 23.1605L84.8386 23.0668C84.877 23.2273 84.9558 23.3487 85.0751 23.4311C85.1944 23.5121 85.35 23.5526 85.5417 23.5526C85.7505 23.5526 85.9174 23.5092 86.0424 23.4226C86.1674 23.3345 86.2299 23.2273 86.2299 23.1009C86.2299 22.9986 86.1916 22.9126 86.1149 22.843C86.0396 22.7734 85.9238 22.7209 85.7676 22.6854L85.2136 22.5639C84.9082 22.4943 84.6824 22.3835 84.536 22.2315C84.3912 22.0795 84.3187 21.8871 84.3187 21.6541C84.3187 21.4609 84.3727 21.2919 84.4806 21.147C84.5886 21.0021 84.7377 20.8892 84.9281 20.8082C85.1184 20.7259 85.3365 20.6847 85.5822 20.6847C85.9359 20.6847 86.2143 20.7614 86.4174 20.9148C86.6206 21.0668 86.7548 21.2706 86.8201 21.5263Z" fill="#292929"/>
<path d="M51.956 35.7273V36.2386H50.1683V35.7273H51.956ZM50.6477 34.9432H51.2848V38.0391C51.2848 38.1626 51.3033 38.2557 51.3402 38.3182C51.3771 38.3793 51.4247 38.4212 51.483 38.4439C51.5426 38.4652 51.6072 38.4759 51.6768 38.4759C51.728 38.4759 51.7727 38.4723 51.8111 38.4652C51.8494 38.4581 51.8793 38.4524 51.9006 38.4482L52.0156 38.9744C51.9787 38.9886 51.9261 39.0028 51.858 39.017C51.7898 39.0327 51.7045 39.0412 51.6023 39.0426C51.4347 39.0455 51.2784 39.0156 51.1335 38.9531C50.9886 38.8906 50.8714 38.794 50.782 38.6634C50.6925 38.5327 50.6477 38.3686 50.6477 38.1712V34.9432ZM52.6607 39V35.7273H53.2765V36.2472H53.3105C53.3702 36.071 53.4753 35.9325 53.6259 35.8317C53.7779 35.7294 53.9498 35.6783 54.1415 35.6783C54.1813 35.6783 54.2282 35.6797 54.2821 35.6825C54.3375 35.6854 54.3809 35.6889 54.4121 35.6932V36.3026C54.3865 36.2955 54.3411 36.2876 54.2757 36.2791C54.2104 36.2692 54.1451 36.2642 54.0797 36.2642C53.9292 36.2642 53.7949 36.2962 53.677 36.3601C53.5605 36.4226 53.4682 36.5099 53.4 36.6222C53.3319 36.733 53.2978 36.8594 53.2978 37.0014V39H52.6607ZM55.8865 39.0724C55.6792 39.0724 55.4917 39.0341 55.324 38.9574C55.1564 38.8793 55.0236 38.7663 54.9256 38.6186C54.829 38.4709 54.7807 38.2898 54.7807 38.0753C54.7807 37.8906 54.8162 37.7386 54.8873 37.6193C54.9583 37.5 55.0542 37.4055 55.1749 37.3359C55.2956 37.2663 55.4306 37.2138 55.5797 37.1783C55.7289 37.1428 55.8809 37.1158 56.0357 37.0973C56.2317 37.0746 56.3908 37.0561 56.513 37.0419C56.6351 37.0263 56.7239 37.0014 56.7793 36.9673C56.8347 36.9332 56.8624 36.8778 56.8624 36.8011V36.7862C56.8624 36.6001 56.8098 36.456 56.7047 36.3537C56.601 36.2514 56.4462 36.2003 56.2402 36.2003C56.0257 36.2003 55.8567 36.2479 55.7331 36.343C55.611 36.4368 55.5265 36.5412 55.4796 36.6562L54.8809 36.5199C54.9519 36.321 55.0556 36.1605 55.1919 36.0384C55.3297 35.9148 55.4881 35.8253 55.6671 35.7699C55.8461 35.7131 56.0343 35.6847 56.2317 35.6847C56.3624 35.6847 56.5009 35.7003 56.6472 35.7315C56.7949 35.7614 56.9327 35.8168 57.0605 35.8977C57.1898 35.9787 57.2956 36.0945 57.378 36.245C57.4604 36.3942 57.5016 36.5881 57.5016 36.8267V39H56.8794V38.5526H56.8539C56.8127 38.6349 56.7509 38.7159 56.6685 38.7955C56.5861 38.875 56.4803 38.9411 56.351 38.9936C56.2218 39.0462 56.0669 39.0724 55.8865 39.0724ZM56.025 38.5611C56.2012 38.5611 56.3517 38.5263 56.4767 38.4567C56.6032 38.3871 56.699 38.2962 56.7644 38.1839C56.8311 38.0703 56.8645 37.9489 56.8645 37.8196V37.3977C56.8418 37.4205 56.7978 37.4418 56.7324 37.4616C56.6685 37.4801 56.5953 37.4964 56.513 37.5107C56.4306 37.5234 56.3503 37.5355 56.2722 37.5469C56.1941 37.5568 56.1287 37.5653 56.0762 37.5724C55.9526 37.5881 55.8397 37.6143 55.7374 37.6513C55.6365 37.6882 55.5556 37.7415 55.4945 37.8111C55.4348 37.8793 55.405 37.9702 55.405 38.0838C55.405 38.2415 55.4632 38.3608 55.5797 38.4418C55.6962 38.5213 55.8446 38.5611 56.025 38.5611ZM58.9872 37.0568V39H58.3501V35.7273H58.9616V36.2599H59.0021C59.0774 36.0866 59.1953 35.9474 59.3558 35.8423C59.5178 35.7372 59.7216 35.6847 59.9673 35.6847C60.1903 35.6847 60.3857 35.7315 60.5533 35.8253C60.7209 35.9176 60.8509 36.0554 60.9432 36.2386C61.0355 36.4219 61.0817 36.6484 61.0817 36.9183V39H60.4446V36.995C60.4446 36.7578 60.3828 36.5724 60.2592 36.4389C60.1357 36.304 59.9659 36.2365 59.75 36.2365C59.6023 36.2365 59.4709 36.2685 59.3558 36.3324C59.2422 36.3963 59.152 36.4901 59.0852 36.6136C59.0199 36.7358 58.9872 36.8835 58.9872 37.0568ZM64.3885 36.5263L63.8111 36.6286C63.7869 36.5547 63.7486 36.4844 63.696 36.4176C63.6449 36.3509 63.5753 36.2962 63.4872 36.2536C63.3991 36.2109 63.2891 36.1896 63.157 36.1896C62.9766 36.1896 62.826 36.2301 62.7053 36.3111C62.5845 36.3906 62.5241 36.4936 62.5241 36.62C62.5241 36.7294 62.5646 36.8175 62.6456 36.8842C62.7266 36.951 62.8572 37.0057 63.0376 37.0483L63.5575 37.1676C63.8587 37.2372 64.0831 37.3445 64.2308 37.4893C64.3786 37.6342 64.4524 37.8224 64.4524 38.054C64.4524 38.25 64.3956 38.4247 64.282 38.5781C64.1697 38.7301 64.0128 38.8494 63.8111 38.9361C63.6108 39.0227 63.3786 39.0661 63.1143 39.0661C62.7479 39.0661 62.4489 38.9879 62.2173 38.8317C61.9858 38.674 61.8438 38.4503 61.7912 38.1605L62.407 38.0668C62.4453 38.2273 62.5241 38.3487 62.6435 38.4311C62.7628 38.5121 62.9183 38.5526 63.1101 38.5526C63.3189 38.5526 63.4858 38.5092 63.6108 38.4226C63.7358 38.3345 63.7983 38.2273 63.7983 38.1009C63.7983 37.9986 63.7599 37.9126 63.6832 37.843C63.608 37.7734 63.4922 37.7209 63.3359 37.6854L62.782 37.5639C62.4766 37.4943 62.2507 37.3835 62.1044 37.2315C61.9595 37.0795 61.8871 36.8871 61.8871 36.6541C61.8871 36.4609 61.9411 36.2919 62.049 36.147C62.157 36.0021 62.3061 35.8892 62.4964 35.8082C62.6868 35.7259 62.9048 35.6847 63.1506 35.6847C63.5043 35.6847 63.7827 35.7614 63.9858 35.9148C64.1889 36.0668 64.3232 36.2706 64.3885 36.5263ZM66.7104 35.7273V36.2386H64.861V35.7273H66.7104ZM65.3681 39V35.348C65.3681 35.1435 65.4128 34.9737 65.5023 34.8388C65.5918 34.7024 65.7104 34.6009 65.8581 34.5341C66.0059 34.4659 66.1664 34.4318 66.3397 34.4318C66.4675 34.4318 66.5769 34.4425 66.6678 34.4638C66.7587 34.4837 66.8262 34.5021 66.8702 34.5192L66.7211 35.0348C66.6912 35.0263 66.6529 35.0163 66.606 35.005C66.5591 34.9922 66.5023 34.9858 66.4355 34.9858C66.2807 34.9858 66.1699 35.0241 66.1032 35.1009C66.0378 35.1776 66.0051 35.2884 66.0051 35.4332V39H65.3681ZM68.6174 39.0661C68.3105 39.0661 68.0428 38.9957 67.8141 38.8551C67.5854 38.7145 67.4078 38.5178 67.2814 38.2649C67.155 38.0121 67.0918 37.7166 67.0918 37.3786C67.0918 37.0391 67.155 36.7422 67.2814 36.4879C67.4078 36.2337 67.5854 36.0362 67.8141 35.8956C68.0428 35.755 68.3105 35.6847 68.6174 35.6847C68.9242 35.6847 69.1919 35.755 69.4206 35.8956C69.6493 36.0362 69.8269 36.2337 69.9533 36.4879C70.0797 36.7422 70.1429 37.0391 70.1429 37.3786C70.1429 37.7166 70.0797 38.0121 69.9533 38.2649C69.8269 38.5178 69.6493 38.7145 69.4206 38.8551C69.1919 38.9957 68.9242 39.0661 68.6174 39.0661ZM68.6195 38.5312C68.8184 38.5312 68.9831 38.4787 69.1138 38.3736C69.2445 38.2685 69.3411 38.1286 69.4036 37.9538C69.4675 37.7791 69.4995 37.5866 69.4995 37.3764C69.4995 37.1676 69.4675 36.9759 69.4036 36.8011C69.3411 36.625 69.2445 36.4837 69.1138 36.3771C68.9831 36.2706 68.8184 36.2173 68.6195 36.2173C68.4192 36.2173 68.253 36.2706 68.1209 36.3771C67.9902 36.4837 67.8929 36.625 67.829 36.8011C67.7665 36.9759 67.7353 37.1676 67.7353 37.3764C67.7353 37.5866 67.7665 37.7791 67.829 37.9538C67.8929 38.1286 67.9902 38.2685 68.1209 38.3736C68.253 38.4787 68.4192 38.5312 68.6195 38.5312ZM70.854 39V35.7273H71.4698V36.2472H71.5039C71.5636 36.071 71.6687 35.9325 71.8192 35.8317C71.9712 35.7294 72.1431 35.6783 72.3349 35.6783C72.3746 35.6783 72.4215 35.6797 72.4755 35.6825C72.5309 35.6854 72.5742 35.6889 72.6055 35.6932V36.3026C72.5799 36.2955 72.5344 36.2876 72.4691 36.2791C72.4038 36.2692 72.3384 36.2642 72.2731 36.2642C72.1225 36.2642 71.9883 36.2962 71.8704 36.3601C71.7539 36.4226 71.6616 36.5099 71.5934 36.6222C71.5252 36.733 71.4911 36.8594 71.4911 37.0014V39H70.854ZM73.1568 39V35.7273H73.7683V36.2599H73.8088C73.877 36.0795 73.9885 35.9389 74.1433 35.8381C74.2981 35.7358 74.4835 35.6847 74.6994 35.6847C74.9181 35.6847 75.1014 35.7358 75.2491 35.8381C75.3983 35.9403 75.5083 36.081 75.5794 36.2599H75.6135C75.6916 36.0852 75.8159 35.946 75.9863 35.8423C76.1568 35.7372 76.3599 35.6847 76.5957 35.6847C76.8926 35.6847 77.1348 35.7777 77.3223 35.9638C77.5112 36.1499 77.6056 36.4304 77.6056 36.8054V39H76.9686V36.8651C76.9686 36.6435 76.9082 36.483 76.7875 36.3835C76.6667 36.2841 76.5225 36.2344 76.3549 36.2344C76.1475 36.2344 75.9863 36.2983 75.8713 36.4261C75.7562 36.5526 75.6987 36.7152 75.6987 36.9141V39H75.0637V36.8246C75.0637 36.647 75.0083 36.5043 74.8975 36.3963C74.7868 36.2884 74.6426 36.2344 74.465 36.2344C74.3443 36.2344 74.2328 36.2663 74.1305 36.3303C74.0297 36.3928 73.948 36.4801 73.8855 36.5923C73.8244 36.7045 73.7939 36.8345 73.7939 36.9822V39H73.1568ZM79.4119 39.0724C79.2045 39.0724 79.017 39.0341 78.8494 38.9574C78.6818 38.8793 78.549 38.7663 78.451 38.6186C78.3544 38.4709 78.3061 38.2898 78.3061 38.0753C78.3061 37.8906 78.3416 37.7386 78.4126 37.6193C78.4837 37.5 78.5795 37.4055 78.7003 37.3359C78.821 37.2663 78.956 37.2138 79.1051 37.1783C79.2543 37.1428 79.4063 37.1158 79.5611 37.0973C79.7571 37.0746 79.9162 37.0561 80.0384 37.0419C80.1605 37.0263 80.2493 37.0014 80.3047 36.9673C80.3601 36.9332 80.3878 36.8778 80.3878 36.8011V36.7862C80.3878 36.6001 80.3352 36.456 80.2301 36.3537C80.1264 36.2514 79.9716 36.2003 79.7656 36.2003C79.5511 36.2003 79.3821 36.2479 79.2585 36.343C79.1364 36.4368 79.0518 36.5412 79.005 36.6562L78.4062 36.5199C78.4773 36.321 78.581 36.1605 78.7173 36.0384C78.8551 35.9148 79.0135 35.8253 79.1925 35.7699C79.3714 35.7131 79.5597 35.6847 79.7571 35.6847C79.8878 35.6847 80.0263 35.7003 80.1726 35.7315C80.3203 35.7614 80.4581 35.8168 80.5859 35.8977C80.7152 35.9787 80.821 36.0945 80.9034 36.245C80.9858 36.3942 81.027 36.5881 81.027 36.8267V39H80.4048V38.5526H80.3793C80.3381 38.6349 80.2763 38.7159 80.1939 38.7955C80.1115 38.875 80.0057 38.9411 79.8764 38.9936C79.7472 39.0462 79.5923 39.0724 79.4119 39.0724ZM79.5504 38.5611C79.7266 38.5611 79.8771 38.5263 80.0021 38.4567C80.1286 38.3871 80.2244 38.2962 80.2898 38.1839C80.3565 38.0703 80.3899 37.9489 80.3899 37.8196V37.3977C80.3672 37.4205 80.3232 37.4418 80.2578 37.4616C80.1939 37.4801 80.1207 37.4964 80.0384 37.5107C79.956 37.5234 79.8757 37.5355 79.7976 37.5469C79.7195 37.5568 79.6541 37.5653 79.6016 37.5724C79.478 37.5881 79.3651 37.6143 79.2628 37.6513C79.1619 37.6882 79.081 37.7415 79.0199 37.8111C78.9602 37.8793 78.9304 37.9702 78.9304 38.0838C78.9304 38.2415 78.9886 38.3608 79.1051 38.4418C79.2216 38.5213 79.37 38.5611 79.5504 38.5611ZM83.4032 35.7273V36.2386H81.6156V35.7273H83.4032ZM82.095 34.9432H82.7321V38.0391C82.7321 38.1626 82.7505 38.2557 82.7875 38.3182C82.8244 38.3793 82.872 38.4212 82.9302 38.4439C82.9899 38.4652 83.0545 38.4759 83.1241 38.4759C83.1752 38.4759 83.22 38.4723 83.2583 38.4652C83.2967 38.4581 83.3265 38.4524 83.3478 38.4482L83.4629 38.9744C83.426 38.9886 83.3734 39.0028 83.3052 39.017C83.237 39.0327 83.1518 39.0412 83.0495 39.0426C82.8819 39.0455 82.7257 39.0156 82.5808 38.9531C82.4359 38.8906 82.3187 38.794 82.2292 38.6634C82.1397 38.5327 82.095 38.3686 82.095 38.1712V34.9432ZM84.108 39V35.7273H84.745V39H84.108ZM84.4297 35.2223C84.3189 35.2223 84.2237 35.1854 84.1442 35.1115C84.0661 35.0362 84.027 34.9467 84.027 34.843C84.027 34.7379 84.0661 34.6484 84.1442 34.5746C84.2237 34.4993 84.3189 34.4616 84.4297 34.4616C84.5405 34.4616 84.6349 34.4993 84.7131 34.5746C84.7926 34.6484 84.8324 34.7379 84.8324 34.843C84.8324 34.9467 84.7926 35.0362 84.7131 35.1115C84.6349 35.1854 84.5405 35.2223 84.4297 35.2223ZM86.9806 39.0661C86.6738 39.0661 86.4061 38.9957 86.1774 38.8551C85.9487 38.7145 85.7711 38.5178 85.6447 38.2649C85.5183 38.0121 85.4551 37.7166 85.4551 37.3786C85.4551 37.0391 85.5183 36.7422 85.6447 36.4879C85.7711 36.2337 85.9487 36.0362 86.1774 35.8956C86.4061 35.755 86.6738 35.6847 86.9806 35.6847C87.2875 35.6847 87.5552 35.755 87.7839 35.8956C88.0126 36.0362 88.1902 36.2337 88.3166 36.4879C88.443 36.7422 88.5062 37.0391 88.5062 37.3786C88.5062 37.7166 88.443 38.0121 88.3166 38.2649C88.1902 38.5178 88.0126 38.7145 87.7839 38.8551C87.5552 38.9957 87.2875 39.0661 86.9806 39.0661ZM86.9828 38.5312C87.1816 38.5312 87.3464 38.4787 87.4771 38.3736C87.6078 38.2685 87.7044 38.1286 87.7669 37.9538C87.8308 37.7791 87.8627 37.5866 87.8627 37.3764C87.8627 37.1676 87.8308 36.9759 87.7669 36.8011C87.7044 36.625 87.6078 36.4837 87.4771 36.3771C87.3464 36.2706 87.1816 36.2173 86.9828 36.2173C86.7825 36.2173 86.6163 36.2706 86.4842 36.3771C86.3535 36.4837 86.2562 36.625 86.1923 36.8011C86.1298 36.9759 86.0985 37.1676 86.0985 37.3764C86.0985 37.5866 86.1298 37.7791 86.1923 37.9538C86.2562 38.1286 86.3535 38.2685 86.4842 38.3736C86.6163 38.4787 86.7825 38.5312 86.9828 38.5312ZM89.8544 37.0568V39H89.2173V35.7273H89.8288V36.2599H89.8693C89.9446 36.0866 90.0625 35.9474 90.223 35.8423C90.3849 35.7372 90.5888 35.6847 90.8345 35.6847C91.0575 35.6847 91.2528 35.7315 91.4205 35.8253C91.5881 35.9176 91.718 36.0554 91.8104 36.2386C91.9027 36.4219 91.9489 36.6484 91.9489 36.9183V39H91.3118V36.995C91.3118 36.7578 91.25 36.5724 91.1264 36.4389C91.0028 36.304 90.8331 36.2365 90.6172 36.2365C90.4695 36.2365 90.3381 36.2685 90.223 36.3324C90.1094 36.3963 90.0192 36.4901 89.9524 36.6136C89.8871 36.7358 89.8544 36.8835 89.8544 37.0568Z" fill="#292929"/>
</g>
<defs>
<clipPath id="clip0_5_67">
<rect width="140" height="60" fill="white"/>
</clipPath>
</defs>
</svg>
